<?xml version="1.0" encoding="UTF-8"?>
<svg version="1.1" xmlns="http://www.w3.org/2000/svg" width="2700" height="2584">
<path d="M0 0 C891 0 1782 0 2700 0 C2700 852.72 2700 1705.44 2700 2584 C1809 2584 918 2584 0 2584 C0 1731.28 0 878.56 0 0 Z " fill="#000000" transform="translate(0,0)"/>
<path d="M0 0 C891 0 1782 0 2700 0 C2700 852.72 2700 1705.44 2700 2584 C1809 2584 918 2584 0 2584 C0 1731.28 0 878.56 0 0 Z M51 64 C50.979375 467.92 50.95875 871.84 50.9375 1288 C50.928396 1415.7821875 50.91929199 1543.564375 50.90991211 1675.21875 C50.90656875 1789.24682616 50.90656875 1789.24682616 50.90455627 1903.27490234 C50.90375648 1946.85524068 50.90375648 1946.85524068 50.90330315 1957.7672348 C50.90327255 1958.50415504 50.90324195 1959.24107528 50.90321042 1960.00032644 C50.90241125 1978.64436238 50.90064475 1997.28839823 50.89871979 2015.93243408 C50.89863448 2016.75913269 50.89854917 2017.58583131 50.89846127 2018.43758139 C50.89706904 2031.88591958 50.89561352 2045.33425775 50.89414941 2058.78259593 C50.8899113 2097.71845965 50.88619144 2136.6543231 50.88597828 2175.59018707 C50.88597369 2176.38462339 50.88596909 2177.17905972 50.88596436 2177.99756987 C50.88587355 2195.37553651 50.88605479 2212.75350313 50.8864972 2230.13146977 C50.88666967 2237.08057152 50.88680478 2244.02967327 50.88692772 2250.97877502 C50.88694211 2251.73669873 50.88695649 2252.49462243 50.88697131 2253.27551352 C50.88740655 2277.14154964 50.88481281 2301.00758408 50.88038147 2324.87361975 C50.87595848 2348.7604596 50.87494379 2372.64729642 50.87816466 2396.53413665 C50.87988991 2410.13160584 50.87883246 2423.72906817 50.87378363 2437.32653657 C50.87070126 2446.35705094 50.8712037 2455.38756037 50.87469915 2464.41807457 C50.87658187 2469.54775491 50.87687115 2474.67742185 50.87276472 2479.80710119 C50.86907179 2484.45590914 50.86994393 2489.10469257 50.87452373 2493.75349953 C50.87536111 2495.42453166 50.87451348 2497.09556568 50.87179661 2498.76659582 C50.86835658 2501.03112493 50.87108228 2503.29556751 50.87532884 2505.5600934 C50.87526483 2506.81359828 50.87520082 2508.06710315 50.87513488 2509.35859302 C51.00873873 2513.25484518 51.51644536 2517.13156287 52 2521 C905.05 2521 1758.1 2521 2637 2521 C2637 1710.19 2637 899.38 2637 64 C1783.62 64 930.24 64 51 64 Z " fill="#6EB64B" transform="translate(0,0)"/>
<path d="M0 0 C110.88 0 221.76 0 336 0 C336 52.47 336 104.94 336 159 C278.58 159 221.16 159 162 159 C162 583.05 162 1007.1 162 1444 C172.89 1444 183.78 1444 195 1444 C200.56358529 1444.02265941 206.12635445 1444.04843887 211.68969727 1444.09179688 C213.083709 1444.10175011 214.47772149 1444.11159789 215.87173462 1444.12135315 C219.52049862 1444.14716606 223.16925073 1444.17438066 226.81800199 1444.20192909 C230.68155371 1444.23083335 234.54511547 1444.25833492 238.40867615 1444.28601074 C245.66431599 1444.3381852 252.91994655 1444.39154805 260.17557424 1444.4453826 C268.46154378 1444.50680073 276.74752325 1444.56682594 285.03350365 1444.62675762 C302.02234694 1444.74966624 319.01117753 1444.87424782 336 1445 C336.02332712 1465.84413603 336.04097826 1486.68826992 336.05181217 1507.53241634 C336.05697553 1517.21001051 336.06401897 1526.88759658 336.07543945 1536.56518555 C336.08538509 1544.99700331 336.09185314 1553.42881521 336.09408849 1561.86063868 C336.09539581 1566.32807392 336.09848295 1570.7954924 336.10573006 1575.26292229 C336.11248838 1579.4628416 336.11461735 1583.66273713 336.11310768 1587.86266136 C336.11338409 1589.40868509 336.11539033 1590.95470956 336.11920547 1592.50072861 C336.1241398 1594.60235776 336.12299928 1596.70389572 336.12025452 1598.80552673 C336.12163721 1600.57398657 336.12163721 1600.57398657 336.12304783 1602.37817287 C336 1605 336 1605 335 1606 C224.45 1606 113.9 1606 0 1606 C0 1076.02 0 546.04 0 0 Z " fill="#6EB649" transform="translate(417,491)"/>
<path d="M0 0 C110.22 0 220.44 0 334 0 C334 529.65 334 1059.3 334 1605 C224.11 1605 114.22 1605 1 1605 C1 1551.87 1 1498.74 1 1444 C58.09 1444 115.18 1444 174 1444 C174 1019.62 174 595.24 174 158 C116.58 158 59.16 158 0 158 C0 105.86 0 53.72 0 0 Z " fill="#6EB649" transform="translate(1960,491)"/>
<path d="M0 0 C100.65 0 201.3 0 305 0 C305 8.25 305 16.5 305 25 C321.17 25 337.34 25 354 25 C354 84.73 354 144.46 354 206 C338.49 206 322.98 206 307 206 C307 197.75 307 189.5 307 181 C305.06125 181.165 303.1225 181.33 301.125 181.5 C292.40247651 182.13452784 283.74526213 182.06727125 275 182 C275 174.08 275 166.16 275 158 C267.74 158 260.48 158 253 158 C253 150.41 253 142.82 253 135 C199.54 135 146.08 135 91 135 C91 142.92 91 150.84 91 159 C76.15 159 61.3 159 46 159 C46 166.92 46 174.84 46 183 C38.08 183 30.16 183 22 183 C22.33 206.43 22.66 229.86 23 254 C7 254 7 254 -3 253 C-2.67 303.49 -2.34 353.98 -2 406 C5.92 406 13.84 406 22 406 C22 425.8 22 445.6 22 466 C23.65 465.67 25.3 465.34 27 465 C28.54665547 464.92404744 30.09604781 464.89180985 31.64453125 464.90234375 C32.78305542 464.90609009 32.78305542 464.90609009 33.94458008 464.90991211 C35.36420044 464.92356812 35.36420044 464.92356812 36.8125 464.9375 C39.844375 464.958125 42.87625 464.97875 46 465 C46 473.58 46 482.16 46 491 C60.85 491 75.7 491 91 491 C91 498.92 91 506.84 91 515 C144.13 515 197.26 515 252 515 C252 507.74 252 500.48 252 493 C259.59 493 267.18 493 275 493 C275 484.75 275 476.5 275 468 C285.56 468 296.12 468 307 468 C307 459.75 307 451.5 307 443 C322.18 443 337.36 443 353 443 C353 503.06 353 563.12 353 625 C318.45721477 625 318.45721477 625 303.625 624.5 C302.07553418 624.4513957 300.52605484 624.4032204 298.9765625 624.35546875 C295.31748711 624.24258238 291.65884424 624.12123981 288 624 C288 632.25 288 640.5 288 649 C192.3 649 96.6 649 -2 649 C-2 640.75 -2 632.5 -2 624 C-17.84 624 -33.68 624 -50 624 C-50 615.75 -50 607.5 -50 599 C-58.25 599 -66.5 599 -75 599 C-75.766116 590.28543051 -76.09612779 581.7476288 -76 573 C-83.92 573.33 -91.84 573.66 -100 574 C-100 565.42 -100 556.84 -100 548 C-108.25 548.33 -116.5 548.66 -125 549 C-125 530.85 -125 512.7 -125 494 C-132.92 494 -140.84 494 -149 494 C-149.33 479.81 -149.66 465.62 -150 451 C-153.3 451.33 -156.6 451.66 -160 452 C-164.3436994 451.17262869 -167.16029269 450.43754042 -170 447 C-170.66 446.67 -171.32 446.34 -172 446 C-172 367.13 -172 288.26 -172 207 C-165.07 207 -158.14 207 -151 207 C-151 191.16 -151 175.32 -151 159 C-143.08 159 -135.16 159 -127 159 C-127 142.5 -127 126 -127 109 C-118.75 109 -110.5 109 -102 109 C-102 101.08 -102 93.16 -102 85 C-94.08 85 -86.16 85 -78 85 C-78 73.45 -78 61.9 -78 50 C-71.31317305 49.39210664 -64.96862489 48.85507347 -58.3125 48.9375 C-55.899375 48.958125 -53.48625 48.97875 -51 49 C-51 41.08 -51 33.16 -51 25 C-25.755 24.505 -25.755 24.505 0 24 C0 16.08 0 8.16 0 0 Z " fill="#6EB549" transform="translate(1508,994)"/>
<path d="M0 0 C92.4 0 184.8 0 280 0 C279.67 232.98 279.34 465.96 279 706 C270.75 706 262.5 706 254 706 C254 722.5 254 739 254 756 C245.75 756 237.5 756 229 756 C229 764.25 229 772.5 229 781 C220.42 780.67 211.84 780.34 203 780 C203 787.59 203 795.18 203 803 C186.83 803 170.66 803 154 803 C154.33 805.31 154.66 807.62 155 810 C155 815.28 155 820.56 155 826 C86.69 826 18.38 826 -52 826 C-52 777.49 -52 728.98 -52 679 C-44.08 679 -36.16 679 -28 679 C-27.67 687.25 -27.34 695.5 -27 704 C9.96 704.33 46.92 704.66 85 705 C85 696.42 85 687.84 85 679 C92.26 679 99.52 679 107 679 C107 664.48 107 649.96 107 635 C114.26 635 121.52 635 129 635 C129 461.75 129 288.5 129 110 C86.43 110 43.86 110 0 110 C0 73.7 0 37.4 0 0 Z " fill="#6FB64A" transform="translate(898,1020)"/>
<path d="M0 0 C39.27 0 78.54 0 119 0 C119 7.92 119 15.84 119 24 C127.91 24 136.82 24 146 24 C146 70.86 146 117.72 146 166 C98.15 166 50.3 166 1 166 C1 157.42 1 148.84 1 140 C-7.58 140 -16.16 140 -25 140 C-25.90377598 112.78988757 -26.09014404 85.59747029 -26.0625 58.375 C-26.06164398 57.5260743 -26.06078796 56.67714859 -26.05990601 55.80249786 C-26.04843025 45.20164171 -26.0274589 34.60082608 -26 24 C-17.42 24 -8.84 24 0 24 C0 16.08 0 8.16 0 0 Z " fill="#6EB647" transform="translate(1032,757)"/>
<path d="M0 0 C0.99 0 1.98 0 3 0 C3 852.72 3 1705.44 3 2584 C2.01 2584 1.02 2584 0 2584 C0 1731.28 0 878.56 0 0 Z " fill="#64AF42" transform="translate(2697,0)"/>
<path d="M0 0 C0.99 0.495 0.99 0.495 2 1 C1.99476318 1.90838623 1.98952637 2.81677246 1.98413086 3.75268555 C1.96657211 7.28866263 1.9543104 10.82459035 1.94506836 14.3605957 C1.94019164 15.85995231 1.93349622 17.35930466 1.92456055 18.85864258 C1.87352338 27.67606406 1.99714096 36.46599393 2.35928345 45.27670288 C3.22909424 66.6496008 3.11493941 88.01891865 3.06866455 109.40582275 C3.05827827 114.72432044 3.05382955 120.04282313 3.04882812 125.36132812 C3.04012534 133.90290185 3.02787553 142.44446119 3.0111084 150.98602295 C2.99923581 157.04646042 3.00056665 163.10686084 3.00279331 169.16730595 C3.00341714 170.90492568 3.00404001 172.64254542 3.0046621 174.38016516 C3.0049976 175.3126269 3.00533311 176.24508864 3.00567878 177.2058068 C3.02061407 218.95474436 3.03412208 260.70368202 3.04234314 302.45262146 C3.0424812 303.15186651 3.04261925 303.85111156 3.04276149 304.57154585 C3.04575552 319.77353549 3.04852508 334.97552516 3.05106533 350.17751488 C3.05231224 357.63111996 3.05360886 365.08472502 3.05493164 372.53833008 C3.0550624 373.27989478 3.05519316 374.02145948 3.05532788 374.78549584 C3.05956682 398.69427624 3.06706169 422.60305423 3.07629722 446.51183318 C3.08579926 471.15619063 3.09190123 495.80054676 3.09391499 520.44490602 C3.09420301 523.95081379 3.09452864 527.45672155 3.09487724 530.96262932 C3.09494467 531.6524069 3.09501209 532.34218448 3.09508156 533.05286442 C3.09617693 543.34052287 3.10016444 553.6281775 3.10573006 563.91583443 C3.11395829 579.37170648 3.11679094 594.82757319 3.11352539 610.28344727 C3.11334705 611.4879129 3.11316871 612.69237853 3.11298497 613.93334313 C3.10676936 644.66710643 3.02148971 675.39188423 2.26287174 706.11772251 C2.23834293 707.17139723 2.21381412 708.22507196 2.18854201 709.31067622 C2.14371695 711.18406888 2.09375407 713.05735183 2.03666055 714.93041074 C1.94113476 718.85682795 2.0257677 722.58836064 2.55514622 726.482934 C2.95146887 729.59219933 2.93561209 732.31733812 2.53531927 735.42248785 C1.83644487 741.86950874 1.86477446 748.27829559 1.87974548 754.75726032 C1.87930856 756.13686106 1.8784313 757.51646171 1.87715685 758.89606193 C1.87492782 762.67999814 1.87891762 766.46390586 1.88393517 770.24783845 C1.88828285 774.36713564 1.88678292 778.4864314 1.88602352 782.60573024 C1.88549098 789.82289702 1.88865848 797.04005479 1.89425278 804.25721931 C1.90254806 814.98912359 1.90507463 825.7210238 1.90637711 836.45293093 C1.90871133 854.50755631 1.91556044 872.56217728 1.92483521 890.61680031 C1.93743711 915.2661768 1.94348036 939.91555182 1.94776857 964.564931 C1.94977484 976.04677751 1.95210228 987.52862396 1.95451355 999.01047039 C1.95475456 1000.15985881 1.95499558 1001.30924723 1.95524389 1002.49346561 C1.96105461 1029.84842768 1.97001157 1057.20338859 1.97949219 1084.55834961 C1.98011266 1086.35366365 1.98011266 1086.35366365 1.98074566 1088.18524665 C1.9870428 1106.39433115 1.99350379 1124.60341558 2 1142.8125 C2.00693014 1162.23950192 2.01379802 1181.66650386 2.02050781 1201.09350586 C2.0209224 1202.29050218 2.02133699 1203.4874985 2.02176414 1204.72076743 C2.03120881 1232.03834307 2.03975761 1259.3559186 2.04548645 1286.67349529 C2.04572744 1287.82090802 2.04596844 1288.96832074 2.04621673 1290.15050355 C2.04860178 1301.60381358 2.05082975 1313.05712364 2.05282298 1324.51043375 C2.05714351 1349.1363581 2.06422983 1373.7622773 2.07687083 1398.38819887 C2.08604065 1416.33278822 2.09180723 1434.27737584 2.09398818 1452.22196744 C2.09540628 1462.89220475 2.09967803 1473.56243237 2.10793434 1484.23266663 C2.11317357 1491.35117273 2.11482398 1498.46967368 2.11350765 1505.58818158 C2.11286393 1509.64967709 2.11384252 1513.71115507 2.1192044 1517.77264748 C2.12404892 1521.46369956 2.12433173 1525.15472211 2.12089865 1528.84577552 C2.12027538 1530.80631459 2.12459282 1532.76685331 2.12908137 1534.72738734 C2.1270903 1535.88709557 2.12509923 1537.04680379 2.12304783 1538.24165469 C2.12342755 1539.24065692 2.12380727 1540.23965915 2.1241985 1541.26893418 C2.00250009 1543.94502421 1.59970875 1546.39302469 1 1549 C0.67 1549 0.34 1549 0 1549 C0 1037.83 0 526.66 0 0 Z " fill="#6DC057" transform="translate(418,497)"/>
<path d="M0 0 C0.33 0 0.66 0 1 0 C1.22786458 2.01822917 1.45572917 4.03645833 1.68359375 6.0546875 C1.91292961 8.07404316 1.91292961 8.07404316 3 10 C2.76524574 11.61553613 2.52624716 13.23056226 2.26660156 14.84228516 C1.73981403 19.10579083 1.85706431 23.39788115 1.875 27.6875 C1.87113281 28.62400391 1.86726563 29.56050781 1.86328125 30.52539062 C1.86521484 31.87987305 1.86521484 31.87987305 1.8671875 33.26171875 C1.86831543 34.07600342 1.86944336 34.89028809 1.87060547 35.72924805 C1.92650191 37.99225819 1.92650191 37.99225819 2.53564453 40.09301758 C3.27159805 43.11537978 2.45815737 45.9456175 2 49 C1.8126781 52.64930817 1.82697297 56.15409009 2.5625 59.75 C3 62 3 62 2.5 63.8515625 C1.92674199 66.31478052 2.10750538 68.12355932 2.4375 70.625 C3.88762417 83.33712748 3.88762417 83.33712748 2 89 C1.90769521 90.518675 1.8693244 92.04102395 1.8671875 93.5625 C1.86589844 94.44164062 1.86460937 95.32078125 1.86328125 96.2265625 C1.86714844 97.14179687 1.87101562 98.05703125 1.875 99 C1.87113281 99.91523437 1.86726563 100.83046875 1.86328125 101.7734375 C1.86457031 102.65257812 1.86585938 103.53171875 1.8671875 104.4375 C1.86831543 105.24058594 1.86944336 106.04367187 1.87060547 106.87109375 C1.9195645 109.18884465 1.9195645 109.18884465 3 112 C2.68525864 114.00300998 2.34884443 116.00264708 2 118 C1.91222281 120.41047271 1.87622646 122.82309461 1.87695217 125.23516488 C1.87579832 125.94572774 1.87464446 126.6562906 1.87345564 127.38838567 C1.87080579 129.77431933 1.87530014 132.16018565 1.87974548 134.54611588 C1.87930926 136.27949417 1.87843329 138.01287239 1.87715685 139.74625027 C1.8749138 144.53152702 1.87893696 149.3167815 1.88393517 154.10205542 C1.88826315 159.3007747 1.88678427 164.49949276 1.88602352 169.69821334 C1.88548966 178.81861522 1.8886706 187.93900999 1.89425278 197.0594101 C1.90253193 210.62472052 1.90507312 224.19002773 1.90637711 237.7553404 C1.90864326 259.88774047 1.91500461 282.02013666 1.92398145 304.15253478 C1.93345528 327.51292174 1.94052592 350.87330734 1.94406128 374.23369598 C1.94416843 374.93812268 1.94427559 375.64254938 1.94438599 376.36832234 C1.94557724 384.24088808 1.94668916 392.11345383 1.94776857 399.98601958 C1.94976841 414.5513983 1.95210078 429.11677696 1.95451355 443.68215561 C1.95463383 444.41106594 1.95475411 445.13997627 1.95487804 445.8909748 C1.96062228 480.6021338 1.96939218 515.31329188 1.978864 550.02445004 C1.97949236 552.32776517 1.98011918 554.63108029 1.98074566 556.93439541 C1.98766171 582.3482487 1.99478608 607.76210192 2.00195286 633.17595513 C2.00800499 654.63768027 2.01400836 676.09940542 2.019881 697.5611306 C2.02050765 699.84998129 2.02113582 702.13883197 2.02176414 704.42768266 C2.03124101 738.98854025 2.03978981 773.54939775 2.04548645 808.1102562 C2.0456071 808.83943622 2.04572776 809.56861625 2.04585207 810.31989264 C2.04826046 824.90108724 2.05053477 839.48228185 2.05252722 854.0634765 C2.05360652 861.95477037 2.05474222 869.84606424 2.05593872 877.73735809 C2.05604519 878.44323147 2.05615166 879.14910486 2.05626135 879.87636834 C2.05981023 903.16463817 2.06735797 926.45290484 2.07687083 949.74117294 C2.0861528 972.51540011 2.09182822 995.28962532 2.09398818 1018.06385449 C2.09526501 1030.36949438 2.09813638 1042.67512854 2.10574722 1054.9807663 C2.13648633 1105.99645847 2.04365208 1156.99338669 1 1208 C0.67 1208 0.34 1208 0 1208 C0 809.36 0 410.72 0 0 Z " fill="#70C453" transform="translate(2135,668)"/>
<path d="M0 0 C0.33 0 0.66 0 1 0 C1.15211163 43.54850226 1.29711916 87.09702342 1.4332476 130.6455787 C1.44950886 135.84583192 1.46582597 141.04608496 1.48217773 146.24633789 C1.48543066 147.28114527 1.48868358 148.31595265 1.49203508 149.38211783 C1.54409342 165.90082839 1.60062401 182.41952053 1.6589582 198.93820999 C1.71919526 216.02555281 1.77427806 233.11290728 1.82505554 250.20028085 C1.85353914 259.73993814 1.88404519 269.27957782 1.92053413 278.81920815 C2.13085336 334.22136025 1.74752035 389.60253412 1 445 C0.67 445 0.34 445 0 445 C-1.15070686 401.57053713 -1.14956351 358.14912963 -1.13529945 314.70777173 C-1.13299276 307.48336115 -1.1327401 300.25895293 -1.13381577 293.03454208 C-1.133969 291.99376777 -1.13412223 290.95299345 -1.13428011 289.88068052 C-1.13459991 287.76473754 -1.13492413 285.64879455 -1.1352527 283.53285156 C-1.13807687 263.88372713 -1.13486639 244.23460743 -1.12945233 224.58548377 C-1.1249617 207.7656457 -1.12578463 190.94581452 -1.13037109 174.12597656 C-1.13572788 154.47260706 -1.13782878 134.81924163 -1.13475883 115.1658715 C-1.13444034 113.07073395 -1.13412597 110.97559639 -1.13381577 108.88045883 C-1.13366149 107.85017037 -1.13350721 106.81988191 -1.13334826 105.75837258 C-1.13248831 98.5322747 -1.13393418 91.30617942 -1.13629532 84.08008194 C-1.13910467 75.29204536 -1.13833002 66.50401771 -1.13301457 57.71598215 C-1.13039682 53.24209267 -1.12934006 48.76821805 -1.13266373 44.29432869 C-1.13566495 40.19265616 -1.13397093 36.09101217 -1.12868617 31.9893422 C-1.12757853 30.51421062 -1.12811596 29.03907658 -1.13056196 27.56394662 C-1.14470386 18.31975601 -0.78629797 9.20934401 0 0 Z " fill="#6DC051" transform="translate(1029,1181)"/>
<path d="M0 0 C46.53 0 93.06 0 141 0 C140.67 4.95 140.34 9.9 140 15 C139.67 15 139.34 15 139 15 C138.67 12.69 138.34 10.38 138 8 C137.34 8 136.68 8 136 8 C136 7.01 136 6.02 136 5 C135.34 5 134.68 5 134 5 C134 4.01 134 3.02 134 2 C132.07414062 2.24447876 132.07414062 2.24447876 130.109375 2.49389648 C122.17457486 3.28200716 114.21409356 3.123441 106.25 3.09765625 C104.54272503 3.09578752 102.83544953 3.09436577 101.12817383 3.09336853 C96.66398604 3.08957606 92.19983151 3.07977619 87.73565674 3.06866455 C83.1766403 3.05839123 78.61761846 3.05385521 74.05859375 3.04882812 C66.07119569 3.03928642 58.08381842 3.02487322 50.09643555 3.00672913 C47.64124563 3.00139355 45.18703353 2.99869137 42.73193359 3.01586914 C6.52465148 3.26232574 6.52465148 3.26232574 0 0 Z " fill="#83D74C" transform="translate(612,1936)"/>
<path d="M0 0 C0.33 0 0.66 0 1 0 C1 76.23 1 152.46 1 231 C8.63062879 232.52612576 16.30874346 233.81672976 24 235 C24 249.85 24 264.7 24 280 C23.67 280 23.34 280 23 280 C22.67 265.81 22.34 251.62 22 237 C18.7 237.33 15.4 237.66 12 238 C7.6563006 237.17262869 4.83970731 236.43754042 2 233 C1.34 232.67 0.68 232.34 0 232 C0 155.44 0 78.88 0 0 Z " fill="#51903D" transform="translate(1336,1208)"/>
<path d="M0 0 C100.32 0 200.64 0 304 0 C304 0.33 304 0.66 304 1 C303.37671074 1.00135653 302.75342149 1.00271306 302.11124468 1.00411069 C265.16832076 1.08476449 228.22543555 1.17572063 191.28257063 1.28005161 C186.84658375 1.29257045 182.41059664 1.30500323 177.97460938 1.31738281 C177.09148589 1.31984881 176.2083624 1.3223148 175.29847759 1.32485552 C160.99993588 1.3645769 146.70138628 1.397327 132.4028216 1.42749982 C117.73067823 1.45861617 103.05856838 1.49722639 88.38646269 1.54279006 C79.33333783 1.5706681 70.28023748 1.59270412 61.22708124 1.60726251 C55.01861069 1.61780635 48.8101876 1.63563068 42.60175282 1.65916704 C39.02007705 1.67253069 35.43846779 1.68269677 31.85676575 1.68421364 C27.97089275 1.68594336 24.085172 1.70301039 20.19934082 1.7215271 C19.07092286 1.71959237 17.94250489 1.71765763 16.77989244 1.71566427 C10.83542713 1.75804993 5.69605161 2.27124536 0 4 C0 2.68 0 1.36 0 0 Z " fill="#84D558" transform="translate(1509,995)"/>
<path d="M0 0 C55.44 0 110.88 0 168 0 C167.67 0.66 167.34 1.32 167 2 C164.50955277 2.34176782 162.12749979 2.55958412 159.625 2.6875 C158.59632813 2.75807617 158.59632813 2.75807617 157.546875 2.83007812 C154.36067167 3.01914272 152.05659185 3.01886395 149 2 C147.00855544 1.90858362 145.01412506 1.87805747 143.02058411 1.87974548 C141.77116531 1.87837082 140.52174652 1.87699615 139.23446655 1.87557983 C137.84747291 1.87911897 136.4604795 1.88275378 135.07348633 1.88647461 C133.61493431 1.88675664 132.15638214 1.88659843 130.6978302 1.8860321 C126.73531191 1.88574475 122.77282378 1.89163147 118.81031251 1.89860606 C114.67031141 1.90484992 110.53030965 1.90544422 106.39030457 1.90663147 C98.54930263 1.90974173 90.70831461 1.91795103 82.86731881 1.92798096 C73.94118156 1.93915154 65.01504366 1.94465493 56.08890116 1.94967639 C37.72592621 1.96013388 19.36296423 1.97772745 1 2 C0.67 1.34 0.34 0.68 0 0 Z " fill="#7ACB4D" transform="translate(919,1020)"/>
<path d="M0 0 C4.62 0 9.24 0 14 0 C12 2 12 2 9.0625 2.6875 C5.77754211 3.76020773 5.77754211 3.76020773 4.125 6.875 C2.256647 12.05394339 2.78619916 17.58371203 3 23 C3 24.87511574 2.98213296 26.75041553 2.9375 28.625 C2.72620721 30.95562735 2.72620721 30.95562735 4 32 C4.13275133 35.91616435 4.10576429 39.38891744 3.4375 43.25 C2.99943237 46.00356798 3.21601717 47.38672389 4 50 C4 65 4 65 3.4375 68.4375 C3.02558505 71.79166461 3.25518427 73.77246516 4 77 C4.13679614 80.41990349 4.08682115 82.73953656 3 86 C3.32380126 87.33568021 3.65657551 88.66923011 4 90 C3.505 90.99 3.505 90.99 3 92 C2.87759865 93.76770327 2.82448847 95.54060462 2.8125 97.3125 C2.79832031 98.25738281 2.78414062 99.20226563 2.76953125 100.17578125 C3.01175665 103.14406882 3.75973393 105.30867165 5 108 C3.02 108.495 3.02 108.495 1 109 C0.505 55.045 0.505 55.045 0 0 Z " fill="#76C454" transform="translate(898,1020)"/>
<path d="M0 0 C1.98 0.99 1.98 0.99 4 2 C4 2.66 4 3.32 4 4 C5.423125 3.9690625 5.423125 3.9690625 6.875 3.9375 C10 4 10 4 12 5 C13.54023996 5.06950541 15.08334988 5.08452357 16.625 5.0625 C17.44226562 5.05347656 18.25953125 5.04445313 19.1015625 5.03515625 C19.72804688 5.02355469 20.35453125 5.01195312 21 5 C22.71802382 8.43604765 22.1196618 12.38438896 22.09765625 16.1640625 C22.0962413 17.07127045 22.09482635 17.97847839 22.09336853 18.91317749 C22.08776096 21.81715155 22.07520718 24.72104915 22.0625 27.625 C22.05748598 29.59114472 22.0529229 31.55729065 22.04882812 33.5234375 C22.03778906 38.3489879 22.02051935 43.17448097 22 48 C21.67 48 21.34 48 21 48 C20.67 36.45 20.34 24.9 20 13 C15.05 13 10.1 13 5 13 C2 11 2 11 1.26953125 8.3984375 C1.11871094 7.40070313 0.96789063 6.40296875 0.8125 5.375 C0.65394531 4.37210938 0.49539063 3.36921875 0.33203125 2.3359375 C0.22246094 1.56507812 0.11289063 0.79421875 0 0 Z " fill="#081B0C" transform="translate(1337,1440)"/>
<path d="M0 0 C0.268125 0.639375 0.53625 1.27875 0.8125 1.9375 C1.88667752 4.33131686 1.88667752 4.33131686 5 5 C7.21911693 5.10390042 9.44124857 5.14648207 11.6627655 5.15821838 C12.68341495 5.16562535 12.68341495 5.16562535 13.72468358 5.17318195 C16.00940572 5.18856535 18.29409973 5.19691983 20.57885742 5.20532227 C22.21474963 5.21490013 23.85063937 5.22491016 25.48652649 5.23532104 C29.93247219 5.26238611 34.37842853 5.28338701 38.82441115 5.30332303 C43.46892347 5.32517269 48.11340295 5.35256637 52.75788879 5.37937927 C61.55509721 5.42931995 70.35232383 5.47425368 79.1495679 5.51740164 C89.16397888 5.56676226 99.17835691 5.62168474 109.19273603 5.67708123 C129.79512667 5.79092239 150.39754875 5.89775679 171 6 C171 6.33 171 6.66 171 7 C114.24 7 57.48 7 -1 7 C-0.67 4.69 -0.34 2.38 0 0 Z " fill="#6FBD52" transform="translate(1961,642)"/>
<path d="M0 0 C37.29 0 74.58 0 113 0 C113 0.33 113 0.66 113 1 C90.56 1 68.12 1 45 1 C45 1.66 45 2.32 45 3 C6.59717314 3.29858657 6.59717314 3.29858657 0 0 Z " fill="#7CC947" transform="translate(612,1936)"/>
<path d="M0 0 C0.33 0 0.66 0 1 0 C1 22.44 1 44.88 1 68 C0.01 68.495 0.01 68.495 -1 69 C-1.19693992 66.33373641 -1.38274782 63.66743361 -1.5625 61 C-1.64661133 59.88431641 -1.64661133 59.88431641 -1.73242188 58.74609375 C-1.97385587 55.04410587 -2.02466012 51.6109018 -1.46484375 47.9375 C-1.04930573 44.41764857 -1.27841871 41.62952725 -1.75437927 38.15234375 C-2.14902673 34.69409741 -2.12320242 31.25792116 -2.09765625 27.78125 C-2.0962413 27.03790405 -2.09482635 26.29455811 -2.09336853 25.52868652 C-2.08783109 23.18574771 -2.07529091 20.84290927 -2.0625 18.5 C-2.05747689 16.89843889 -2.05291542 15.29687627 -2.04882812 13.6953125 C-2.03788227 9.79683712 -2.02066196 5.8984355 -2 2 C-1.34 2 -0.68 2 0 2 C0 1.34 0 0.68 0 0 Z " fill="#7BCD54" transform="translate(1860,1075)"/>
<path d="M0 0 C21.12 0 42.24 0 64 0 C63.67 2.31 63.34 4.62 63 7 C62.505 6.01 62.505 6.01 62 5 C61.01 5 60.02 5 59 5 C58.34 4.01 57.68 3.02 57 2 C56.34 2.33 55.68 2.66 55 3 C53.02672849 2.76978499 51.05367735 2.53521328 49.0859375 2.26171875 C45.36573122 1.7949513 41.9218392 1.8333398 38.234375 2.5 C34.89608307 3.01606445 31.7508892 3.13290606 28.375 3.125 C27.26898437 3.12757813 26.16296875 3.13015625 25.0234375 3.1328125 C22 3 22 3 19.9140625 2.4296875 C17.9399655 1.84962944 17.9399655 1.84962944 15.70703125 2.46484375 C12.25236401 3.14780105 9.19105619 2.85719164 5.6875 2.5625 C4.43324219 2.46066406 3.17898438 2.35882812 1.88671875 2.25390625 C0.93410156 2.17011719 -0.01851562 2.08632813 -1 2 C-0.67 1.34 -0.34 0.68 0 0 Z " fill="#77C444" transform="translate(1114,1020)"/>
<path d="M0 0 C0.33 0.99 0.66 1.98 1 3 C8.64133815 4.62141261 16.26190937 5.80952452 24 7 C24 21.85 24 36.7 24 52 C23.67 52 23.34 52 23 52 C22.67 37.81 22.34 23.62 22 9 C18.7 9.33 15.4 9.66 12 10 C7.6563006 9.17262869 4.83970731 8.43754042 2 5 C1.34 4.67 0.68 4.34 0 4 C0 2.68 0 1.36 0 0 Z " fill="#366D26" transform="translate(1336,1436)"/>
<path d="M0 0 C0.33 0 0.66 0 1 0 C1 13.2 1 26.4 1 40 C-0.65 39.67 -2.3 39.34 -4 39 C-3.34 36.69 -2.68 34.38 -2 32 C-2.66 31.67 -3.32 31.34 -4 31 C-3.34 31 -2.68 31 -2 31 C-2.01047363 30.23856689 -2.02094727 29.47713379 -2.03173828 28.69262695 C-2.07339019 25.2326184 -2.0993556 21.77266269 -2.125 18.3125 C-2.14175781 17.11431641 -2.15851563 15.91613281 -2.17578125 14.68164062 C-2.18222656 13.52470703 -2.18867187 12.36777344 -2.1953125 11.17578125 C-2.20578613 10.11270752 -2.21625977 9.04963379 -2.22705078 7.9543457 C-1.99375431 4.91873219 -1.28205135 2.74376733 0 0 Z " fill="#7ECF51" transform="translate(1860,1160)"/>
<path d="M0 0 C11.55 0 23.1 0 35 0 C31.53655709 3.46344291 27.07613383 3.0548785 22.3984375 3.0625 C20.72390325 3.04670251 19.04941062 3.02576016 17.375 3 C15.69537845 2.97439601 14.01567898 2.95339661 12.3359375 2.9375 C11.59907715 2.92589844 10.8622168 2.91429687 10.10302734 2.90234375 C6.51128824 3.06912987 4.58160193 3.41839807 2 6 C1.54188325 7.97235333 1.54188325 7.97235333 1.375 10.125 C1.25125 11.40375 1.1275 12.6825 1 14 C0.67 14 0.34 14 0 14 C0 9.38 0 4.76 0 0 Z " fill="#73C43D" transform="translate(1783,1462)"/>
<path d="M0 0 C1.35432675 1.31200404 2.68733482 2.64631404 4 4 C4 4.33 4 4.66 4 5 C-21.41 5 -46.82 5 -73 5 C-73 4.67 -73 4.34 -73 4 C-71.69454475 3.99120064 -71.69454475 3.99120064 -70.36271667 3.98222351 C-62.16657651 3.92435377 -53.97071053 3.85231024 -45.77483654 3.76428509 C-41.56109206 3.71953031 -37.34744541 3.6802857 -33.13354492 3.65356445 C-29.06795155 3.62758205 -25.00273362 3.58721627 -20.93737221 3.53681374 C-19.38526385 3.52011058 -17.8330905 3.50861781 -16.28090477 3.50238609 C-14.10898727 3.49278202 -11.93803772 3.4647697 -9.76635742 3.43237305 C-7.91103645 3.41571846 -7.91103645 3.41571846 -6.01823425 3.39872742 C-2.99163624 3.26195294 -2.99163624 3.26195294 -1.07710266 1.47297668 C-0.54393684 0.74385323 -0.54393684 0.74385323 0 0 Z " fill="#6DC050" transform="translate(749,644)"/>
<path d="M0 0 C0.33 0 0.66 0 1 0 C1 2.64 1 5.28 1 8 C-3.05272458 8.0250883 -7.10541786 8.04303967 -11.15820312 8.05493164 C-12.53125803 8.05989951 -13.90430782 8.0666761 -15.27734375 8.07543945 C-23.91018006 8.12907915 -32.41102941 7.89797465 -41 7 C-41 6.67 -41 6.34 -41 6 C-35.92817521 5.8323458 -30.8561943 5.67179034 -25.78393555 5.51782227 C-24.05828803 5.46443834 -22.33269948 5.40911179 -20.60717773 5.35180664 C-18.12757073 5.2697949 -15.64783593 5.19476157 -13.16796875 5.12109375 C-12.39599655 5.09405869 -11.62402435 5.06702362 -10.82865906 5.03916931 C-7.58570577 4.94871899 -5.10467559 4.96510814 -2 6 C-1.67 5.01 -1.34 4.02 -1 3 C-0.67 2.01 -0.34 1.02 0 0 Z " fill="#62AF47" transform="translate(1860,1611)"/>
<path d="M0 0 C7.92 0 15.84 0 24 0 C24 0.33 24 0.66 24 1 C22.02 1 20.04 1 18 1 C18.33 1.99 18.66 2.98 19 4 C18.01 4.495 18.01 4.495 17 5 C16.34 4.34 15.68 3.68 15 3 C12.91630404 2.90172484 12.91630404 2.90172484 10.625 3.25 C9.46871094 3.38148437 9.46871094 3.38148437 8.2890625 3.515625 C5.83362964 4.03520465 4.10153853 4.62282156 2 6 C1.34 7.32 0.68 8.64 0 10 C0 6.7 0 3.4 0 0 Z " fill="#63A034" transform="translate(846,1699)"/>
<path d="M0 0 C0.33 0 0.66 0 1 0 C2.23402862 4.77092956 2.11265112 9.42469446 2.0625 14.3125 C2.05798828 15.14845703 2.05347656 15.98441406 2.04882812 16.84570312 C2.03710548 18.89716649 2.01917203 20.94859273 2 23 C-0.64 22.67 -3.28 22.34 -6 22 C-4.90025894 19.20834962 -3.75957823 16.5095396 -2.4375 13.8125 C-0.49603837 9.38047648 -0.27903019 4.78200021 0 0 Z " fill="#72C54A" transform="translate(1552,1154)"/>
<path d="M0 0 C0.33 0 0.66 0 1 0 C1 5.61 1 11.22 1 17 C-14.51 17 -30.02 17 -46 17 C-46 16.67 -46 16.34 -46 16 C-45.45098526 15.98969254 -44.90197052 15.97938507 -44.33631897 15.96876526 C-38.64278719 15.86092053 -32.94942079 15.74630551 -27.25610352 15.62768555 C-25.12885993 15.58426577 -23.0015799 15.54259607 -20.87426758 15.50268555 C-17.82361849 15.44515293 -14.77315411 15.38141033 -11.72265625 15.31640625 C-10.76537125 15.29969376 -9.80808624 15.28298126 -8.8217926 15.26576233 C-7.94095505 15.24581711 -7.06011749 15.22587189 -6.15258789 15.20532227 C-4.9834359 15.18200584 -4.9834359 15.18200584 -3.79066467 15.15821838 C-1.97706647 15.19110881 -1.97706647 15.19110881 -1 14 C-0.76472227 11.65012738 -0.58613583 9.29443961 -0.4375 6.9375 C-0.35371094 5.64714844 -0.26992187 4.35679688 -0.18359375 3.02734375 C-0.09271484 1.52880859 -0.09271484 1.52880859 0 0 Z " fill="#76C956" transform="translate(1099,1805)"/>
<path d="M0 0 C0.33 0 0.66 0 1 0 C1.1693475 2.99986993 1.33554793 5.99986092 1.5 9 C1.54769531 9.83917969 1.59539063 10.67835938 1.64453125 11.54296875 C1.86239521 15.55789036 2.01901594 19.54122501 1.96875 23.5625 C1.59701266 26.83056252 1.59701266 26.83056252 3 28 C2.9622362 29.83590188 2.84545801 31.67051617 2.6875 33.5 C2.60886719 34.5003125 2.53023437 35.500625 2.44921875 36.53125 C2.30097656 37.3459375 2.15273438 38.160625 2 39 C1.01 39.495 1.01 39.495 0 40 C0 26.8 0 13.6 0 0 Z " fill="#74C556" transform="translate(1007,801)"/>
<path d="M0 0 C0.33 0 0.66 0 1 0 C1 14.19 1 28.38 1 43 C-0.98 43 -2.96 43 -5 43 C-3.79618552 40.50638429 -2.54571278 38.31856917 -1 36 C-0.75926865 33.24781023 -0.62717312 30.58782534 -0.5859375 27.83203125 C-0.56657135 27.03721848 -0.5472052 26.2424057 -0.5272522 25.42350769 C-0.46750558 22.88661405 -0.42109117 20.34967491 -0.375 17.8125 C-0.33681565 16.09177716 -0.29776365 14.37107335 -0.2578125 12.65039062 C-0.16180821 8.43374835 -0.07775924 4.2170166 0 0 Z " fill="#7BCA4F" transform="translate(1150,1732)"/>
<path d="M0 0 C0.66 0 1.32 0 2 0 C2.05783842 4.29161047 2.0935412 8.58312145 2.125 12.875 C2.14175781 14.09832031 2.15851563 15.32164063 2.17578125 16.58203125 C2.18222656 17.74863281 2.18867187 18.91523437 2.1953125 20.1171875 C2.20578613 21.19597168 2.21625977 22.27475586 2.22705078 23.38623047 C2 26 2 26 0 28 C-1.31864186 22.99753327 -1.1470893 18.00708152 -1.125 12.875 C-1.12886719 11.96878906 -1.13273437 11.06257813 -1.13671875 10.12890625 C-1.13542969 9.25878906 -1.13414063 8.38867188 -1.1328125 7.4921875 C-1.13168457 6.70183105 -1.13055664 5.91147461 -1.12939453 5.09716797 C-1 3 -1 3 0 0 Z " fill="#7ACE53" transform="translate(1859,1045)"/>
<path d="M0 0 C-0.33 4.95 -0.66 9.9 -1 15 C-1.33 15 -1.66 15 -2 15 C-2.33 12.69 -2.66 10.38 -3 8 C-3.66 8 -4.32 8 -5 8 C-5 7.01 -5 6.02 -5 5 C-5.66 5 -6.32 5 -7 5 C-7 4.01 -7 3.02 -7 2 C-8.32 1.67 -9.64 1.34 -11 1 C-7.57067929 -0.71466036 -3.78283935 -0.05404056 0 0 Z " fill="#8CDF51" transform="translate(753,1936)"/>
<path d="M0 0 C0.33 0 0.66 0 1 0 C1 8.25 1 16.5 1 25 C-1.31 24.67 -3.62 24.34 -6 24 C-5.195625 23.01 -4.39125 22.02 -3.5625 21 C0.46270944 14.72340223 -0.09635716 7.2180272 0 0 Z " fill="#7DD04F" transform="translate(1795,1618)"/>
<path d="M0 0 C1.32 0 2.64 0 4 0 C4 8.58 4 17.16 4 26 C3.34 25.67 2.68 25.34 2 25 C1.5859375 22.15625 1.5859375 22.15625 1.375 18.5 C1.30023437 17.23671875 1.22546875 15.9734375 1.1484375 14.671875 C1.02787743 11.68959955 0.97074997 8.73350291 1 5.75 C1.2795085 2.186339 1.2795085 2.186339 0 0 Z " fill="#7DCB4F" transform="translate(1550,1459)"/>
<path d="M0 0 C0.33 0 0.66 0 1 0 C1 9.9 1 19.8 1 30 C-0.83015818 26.33968363 -1.24555021 25.39808937 -1.16015625 21.62890625 C-1.14919922 20.80712891 -1.13824219 19.98535156 -1.12695312 19.13867188 C-1.10568359 18.28853516 -1.08441406 17.43839844 -1.0625 16.5625 C-0.83756874 9.22149178 -0.83756874 9.22149178 -2 2 C-1.34 2 -0.68 2 0 2 C0 1.34 0 0.68 0 0 Z " fill="#7ACC4D" transform="translate(1529,1208)"/>
<path d="M0 0 C4.62 0 9.24 0 14 0 C11.68309354 1.15845323 9.35482349 2.2957059 7 3.375 C4.08240713 4.95536281 2.20046735 6.54563258 0 9 C0 6.03 0 3.06 0 0 Z " fill="#7BC746" transform="translate(1407,1079)"/>
<path d="M0 0 C1.35432675 1.31200404 2.68733482 2.64631404 4 4 C4 4.33 4 4.66 4 5 C-5.9 5 -15.8 5 -26 5 C-26 4.67 -26 4.34 -26 4 C-25.31897217 3.98541748 -24.63794434 3.97083496 -23.9362793 3.95581055 C-20.85277785 3.88137304 -17.77036433 3.78469917 -14.6875 3.6875 C-13.61564453 3.66494141 -12.54378906 3.64238281 -11.43945312 3.61914062 C-10.41142578 3.58369141 -9.38339844 3.54824219 -8.32421875 3.51171875 C-7.37635498 3.48553467 -6.42849121 3.45935059 -5.4519043 3.43237305 C-2.64839606 2.93799755 -1.74403036 2.19344374 0 0 Z " fill="#76CB53" transform="translate(749,644)"/>
<path d="M0 0 C7.59 0 15.18 0 23 0 C23 0.33 23 0.66 23 1 C21.75863281 1.10957031 20.51726562 1.21914062 19.23828125 1.33203125 C17.59629103 1.49153887 15.95436722 1.6517312 14.3125 1.8125 C13.49587891 1.88275391 12.67925781 1.95300781 11.83789062 2.02539062 C7.17540488 2.49730214 3.86881273 3.12399869 0 6 C0 4.02 0 2.04 0 0 Z " fill="#7ED04C" transform="translate(1760,1487)"/>
<path d="M0 0 C0.33 0 0.66 0 1 0 C4.95294118 20.22352941 4.95294118 20.22352941 1 27 C-0.01894076 21.15111957 -0.11798453 15.49080831 -0.0625 9.5625 C-0.05798828 8.64017578 -0.05347656 7.71785156 -0.04882812 6.76757812 C-0.03713938 4.51164952 -0.02075455 2.25586033 0 0 Z " fill="#6AAF4F" transform="translate(1027,1132)"/>
<path d="M0 0 C0 0.66 0 1.32 0 2 C-0.969375 1.979375 -1.93875 1.95875 -2.9375 1.9375 C-5.87465895 1.64381501 -5.87465895 1.64381501 -7 3 C-12.40652829 3.39446773 -17.67403774 2.90654677 -23 2 C-23 1.67 -23 1.34 -23 1 C-15.31068715 -0.06059488 -7.75493514 -0.09928082 0 0 Z " fill="#66A230" transform="translate(1455,1043)"/>
<path d="M0 0 C0.33 0 0.66 0 1 0 C1.06058594 0.99902344 1.12117188 1.99804688 1.18359375 3.02734375 C1.26738281 4.31769531 1.35117188 5.60804687 1.4375 6.9375 C1.51871094 8.22527344 1.59992188 9.51304688 1.68359375 10.83984375 C1.64919188 13.86023957 1.64919188 13.86023957 3 15 C3.14115161 17.67058851 3.04247107 20.32432238 3 23 C2.01 23.33 1.02 23.66 0 24 C0 16.08 0 8.16 0 0 Z " fill="#7EC452" transform="translate(1783,1152)"/>
<path d="M0 0 C0.99 0.495 0.99 0.495 2 1 C1.98259766 2.64548828 1.98259766 2.64548828 1.96484375 4.32421875 C1.95546036 5.77864412 1.94636075 7.23307135 1.9375 8.6875 C1.92912109 9.40873047 1.92074219 10.12996094 1.91210938 10.87304688 C1.89463842 14.69918708 1.91262499 18.31386711 3 22 C3.66 22.66 4.32 23.32 5 24 C3.35 24 1.7 24 0 24 C0 16.08 0 8.16 0 0 Z " fill="#77B850" transform="translate(1458,1593)"/>
<path d="M0 0 C1.21816406 0.03480469 1.21816406 0.03480469 2.4609375 0.0703125 C3.68683594 0.09738281 3.68683594 0.09738281 4.9375 0.125 C5.87722656 0.15980469 5.87722656 0.15980469 6.8359375 0.1953125 C4.8359375 2.1953125 4.8359375 2.1953125 1.8984375 2.8828125 C-1.46577534 4.324618 -1.70492729 4.64775174 -3.0390625 7.8203125 C-3.4103125 8.9340625 -3.7815625 10.0478125 -4.1640625 11.1953125 C-4.4940625 11.1953125 -4.8240625 11.1953125 -5.1640625 11.1953125 C-5.04996657 9.73608557 -4.92240706 8.27790652 -4.7890625 6.8203125 C-4.71945312 6.00820312 -4.64984375 5.19609375 -4.578125 4.359375 C-4.00108641 1.34353178 -3.09746697 0.27955478 0 0 Z " fill="#7ACC47" transform="translate(905.1640625,1019.8046875)"/>
<path d="M0 0 C5.61 0 11.22 0 17 0 C13.52630934 1.73684533 11.92380063 2.30084112 8.25 2.625 C7.05117188 2.73714844 7.05117188 2.73714844 5.828125 2.8515625 C5.22484375 2.90054688 4.6215625 2.94953125 4 3 C3.67 3.99 3.34 4.98 3 6 C2.34 6 1.68 6 1 6 C0.67 4.02 0.34 2.04 0 0 Z " fill="#75CE44" transform="translate(1006,782)"/>
<path d="M0 0 C3.63 0 7.26 0 11 0 C7.43688534 2.672336 5.15414253 3.77263971 1 5 C0.67 3.35 0.34 1.7 0 0 Z " fill="#82D64E" transform="translate(1961,1936)"/>
<path d="M0 0 C1.134375 0.020625 2.26875 0.04125 3.4375 0.0625 C3.4375 3.0325 3.4375 6.0025 3.4375 9.0625 C3.1075 9.0625 2.7775 9.0625 2.4375 9.0625 C2.1075 7.4125 1.7775 5.7625 1.4375 4.0625 C0.4475 4.5575 0.4475 4.5575 -0.5625 5.0625 C-0.5625 4.4025 -0.5625 3.7425 -0.5625 3.0625 C-1.5525 3.3925 -2.5425 3.7225 -3.5625 4.0625 C-3.8925 3.0725 -4.2225 2.0825 -4.5625 1.0625 C-3.5625 0.0625 -3.5625 0.0625 0 0 Z " fill="#7CC73E" transform="translate(1526.5625,1399.9375)"/>
<path d="M0 0 C1.98 0 3.96 0 6 0 C5.67 2.31 5.34 4.62 5 7 C3.68 7 2.36 7 1 7 C0.67 4.69 0.34 2.38 0 0 Z " fill="#80DA49" transform="translate(747,492)"/>
<path d="M0 0 C0.33 0 0.66 0 1 0 C1 5.61 1 11.22 1 17 C-2.63 17 -6.26 17 -10 17 C-6 15 -6 15 -1 14 C-0.67 9.38 -0.34 4.76 0 0 Z " fill="#76CE48" transform="translate(1099,1805)"/>
<path d="M0 0 C0.66 0.66 1.32 1.32 2 2 C1.71323566 3.67530746 1.36846855 5.34074721 1 7 C0.93298494 9.43666765 0.91471979 11.87501742 0.9375 14.3125 C0.94652344 15.56675781 0.95554687 16.82101562 0.96484375 18.11328125 C0.97644531 19.06589844 0.98804688 20.01851562 1 21 C0.34 21.33 -0.32 21.66 -1 22 C-1.02887814 18.52085059 -1.04675687 15.04173169 -1.0625 11.5625 C-1.07087891 10.56927734 -1.07925781 9.57605469 -1.08789062 8.55273438 C-1.09111328 7.60849609 -1.09433594 6.66425781 -1.09765625 5.69140625 C-1.10289307 4.81685791 -1.10812988 3.94230957 -1.11352539 3.04125977 C-1 1 -1 1 0 0 Z " fill="#60B23E" transform="translate(1385,1513)"/>
<path d="M0 0 C3.3 0 6.6 0 10 0 C8.515 1.485 8.515 1.485 7 3 C6.34 3 5.68 3 5 3 C3.62689293 4.29233607 2.28965176 5.62437146 1 7 C0.67 4.69 0.34 2.38 0 0 Z " fill="#82D747" transform="translate(1032,757)"/>
<path d="M0 0 C0.33 0 0.66 0 1 0 C1 2.31 1 4.62 1 7 C-1.97 6.67 -4.94 6.34 -8 6 C-6.49736177 2.99472353 -4.08347159 3.02782386 -1 2 C-0.67 1.34 -0.34 0.68 0 0 Z " fill="#7FC950" transform="translate(1126,1794)"/>
<path d="M0 0 C1.17949219 0.11988281 2.35898438 0.23976563 3.57421875 0.36328125 C4.92966797 0.52376953 4.92966797 0.52376953 6.3125 0.6875 C6.3125 1.0175 6.3125 1.3475 6.3125 1.6875 C2.0225 1.6875 -2.2675 1.6875 -6.6875 1.6875 C-6.6875 3.3375 -6.6875 4.9875 -6.6875 6.6875 C-7.3475 6.6875 -8.0075 6.6875 -8.6875 6.6875 C-9.375 4.875 -9.375 4.875 -9.6875 2.6875 C-7.17260659 -1.23277503 -4.26907589 -0.46494886 0 0 Z " fill="#7ACB53" transform="translate(1132.6875,1773.3125)"/>
<path d="M0 0 C2 4 2 4 3 7 C2.67 7.33 2.34 7.66 2 8 C1.76321284 10.69235776 1.57801975 13.36498156 1.4375 16.0625 C1.39431641 16.82111328 1.35113281 17.57972656 1.30664062 18.36132812 C1.20026367 20.24065438 1.09960066 22.12030244 1 24 C0.67 24 0.34 24 0 24 C0 16.08 0 8.16 0 0 Z " fill="#58A638" transform="translate(1360,1451)"/>
<path d="M0 0 C0.33 0 0.66 0 1 0 C1 3.63 1 7.26 1 11 C1.66 11 2.32 11 3 11 C2.814375 12.11375 2.62875 13.2275 2.4375 14.375 C1.68319343 17.82568861 1.68319343 17.82568861 3 20 C2.01 20 1.02 20 0 20 C0 13.4 0 6.8 0 0 Z " fill="#7AC14E" transform="translate(1507,1623)"/>
<path d="M0 0 C2.64 0 5.28 0 8 0 C7.67 0.99 7.34 1.98 7 3 C5.02 3.33 3.04 3.66 1 4 C0.67 2.68 0.34 1.36 0 0 Z " fill="#0E2F10" transform="translate(1350,1445)"/>
<path d="M0 0 C2.64 0.33 5.28 0.66 8 1 C8 1.66 8 2.32 8 3 C6.68 3 5.36 3 4 3 C4 3.66 4 4.32 4 5 C2.68 5.33 1.36 5.66 0 6 C0 4.02 0 2.04 0 0 Z " fill="#79C83E" transform="translate(1431,1044)"/>
<path d="M0 0 C1.98 0 3.96 0 6 0 C6 2.31 6 4.62 6 7 C5.34 7 4.68 7 4 7 C3.67 6.01 3.34 5.02 3 4 C2.01 3.34 1.02 2.68 0 2 C0 1.34 0 0.68 0 0 Z " fill="#7EC74A" transform="translate(864,1700)"/>
<path d="M0 0 C0.66 0 1.32 0 2 0 C2 1.98 2 3.96 2 6 C-0.97 5.505 -0.97 5.505 -4 5 C-4 4.34 -4 3.68 -4 3 C-3.01 3 -2.02 3 -1 3 C-0.67 2.01 -0.34 1.02 0 0 Z " fill="#7FCB52" transform="translate(1597,1147)"/>
<path d="M0 0 C0.33 0 0.66 0 1 0 C1 2.97 1 5.94 1 9 C-0.65 8.67 -2.3 8.34 -4 8 C-2.68 5.36 -1.36 2.72 0 0 Z " fill="#7FD04D" transform="translate(1553,1168)"/>
<path d="M0 0 C1.98 0 3.96 0 6 0 C4.66666667 1.33333333 3.33333333 2.66666667 2 4 C1.54188325 5.97235333 1.54188325 5.97235333 1.375 8.125 C1.25125 9.40375 1.1275 10.6825 1 12 C0.67 12 0.34 12 0 12 C0 8.04 0 4.08 0 0 Z " fill="#78C646" transform="translate(1458,1020)"/>
<path d="M0 0 C1.65 0 3.3 0 5 0 C3.68 2.64 2.36 5.28 1 8 C0.67 8 0.34 8 0 8 C0 5.36 0 2.72 0 0 Z " fill="#88D160" transform="translate(898,1020)"/>
<path d="M0 0 C0.33 0 0.66 0 1 0 C1 4.62 1 9.24 1 14 C0.34 14 -0.32 14 -1 14 C-2.13732426 10.59598052 -1.83989957 8.22543336 -1.0625 4.75 C-0.86785156 3.85796875 -0.67320313 2.9659375 -0.47265625 2.046875 C-0.31667969 1.37140625 -0.16070313 0.6959375 0 0 Z " fill="#6CBC3E" transform="translate(1176,1710)"/>
<path d="M0 0 C1.41569064 -0.08167446 2.83276805 -0.13949698 4.25 -0.1875 C5.43335938 -0.23970703 5.43335938 -0.23970703 6.640625 -0.29296875 C9.51712968 0.06421312 10.84576769 1.11751718 13 3 C11.39504433 2.88557539 9.79101881 2.75805306 8.1875 2.625 C7.29417969 2.55539062 6.40085937 2.48578125 5.48046875 2.4140625 C3 2 3 2 0 0 Z " fill="#4B9831" transform="translate(1340,1439)"/>
<path d="M0 0 C0.165 0.61875 0.33 1.2375 0.5 1.875 C2.90181375 5.27756949 6.00162134 5.22612026 10 6 C10 6.33 10 6.66 10 7 C6.37 7 2.74 7 -1 7 C-0.67 4.69 -0.34 2.38 0 0 Z " fill="#7ECB5B" transform="translate(1961,642)"/>
<path d="M0 0 C1.35432675 1.31200404 2.68733482 2.64631404 4 4 C4 4.33 4 4.66 4 5 C2.02 5 0.04 5 -2 5 C-2.33 4.34 -2.66 3.68 -3 3 C-2.01 2.01 -1.02 1.02 0 0 Z " fill="#81DA58" transform="translate(749,644)"/>
<path d="M0 0 C4.29 0.33 8.58 0.66 13 1 C12.67 1.99 12.34 2.98 12 4 C12 3.34 12 2.68 12 2 C8.7 2.33 5.4 2.66 2 3 C1.34 2.01 0.68 1.02 0 0 Z " fill="#194919" transform="translate(1346,1443)"/>
<path d="M0 0 C1.98 0 3.96 0 6 0 C6 1.98 6 3.96 6 6 C5.67 5.34 5.34 4.68 5 4 C4.01 4 3.02 4 2 4 C1.34 2.68 0.68 1.36 0 0 Z " fill="#84D845" transform="translate(1171,1021)"/>
<path d="M0 0 C2.64 0 5.28 0 8 0 C7.01 1.485 7.01 1.485 6 3 C2.875 3.1875 2.875 3.1875 0 3 C0 2.01 0 1.02 0 0 Z " fill="#81D24F" transform="translate(1961,492)"/>
<path d="M0 0 C0.33 0 0.66 0 1 0 C1 2.97 1 5.94 1 9 C0.34 9 -0.32 9 -1 9 C-1.625 5.625 -1.625 5.625 -2 2 C-1.34 1.34 -0.68 0.68 0 0 Z " fill="#76CC50" transform="translate(1860,1031)"/>
<path d="M0 0 C2.64 0 5.28 0 8 0 C8 0.66 8 1.32 8 2 C5.36 2.66 2.72 3.32 0 4 C0 2.68 0 1.36 0 0 Z " fill="#82CF4E" transform="translate(1509,995)"/>
<path d="M0 0 C2.97 0 5.94 0 9 0 C8.67 1.98 8.34 3.96 8 6 C6 3 6 3 6 1 C4.02 1 2.04 1 0 1 C0 0.67 0 0.34 0 0 Z " fill="#87D24A" transform="translate(1169,781)"/>
<path d="M0 0 C-0.33 1.98 -0.66 3.96 -1 6 C-1.99 5.67 -2.98 5.34 -4 5 C-4.6875 2.9375 -4.6875 2.9375 -5 1 C-3 0 -3 0 0 0 Z " fill="#7DCF43" transform="translate(1151,757)"/>
<path d="M0 0 C2 3 2 3 2 5 C2.66 5.66 3.32 6.32 4 7 C2.35 7 0.7 7 -1 7 C-1.04254356 5.00045254 -1.04080783 2.99958364 -1 1 C-0.67 0.67 -0.34 0.34 0 0 Z " fill="#80C152" transform="translate(1459,1610)"/>
<path d="M0 0 C3.85645121 -0.22036864 6.49223216 0.39644899 10 2 C10 2.66 10 3.32 10 4 C8.51882199 3.71872579 7.04006751 3.42466268 5.5625 3.125 C4.73878906 2.96257812 3.91507813 2.80015625 3.06640625 2.6328125 C2.38449219 2.42398437 1.70257812 2.21515625 1 2 C0.67 1.34 0.34 0.68 0 0 Z " fill="#5AAB3D" transform="translate(1349,1439)"/>
</svg>
