<?xml version="1.0" encoding="UTF-8"?>
<svg version="1.1" xmlns="http://www.w3.org/2000/svg" width="1024" height="1024">
<path d="M0 0 C337.92 0 675.84 0 1024 0 C1024 337.92 1024 675.84 1024 1024 C686.08 1024 348.16 1024 0 1024 C0 686.08 0 348.16 0 0 Z " fill="#000000" transform="translate(0,0)"/>
<path d="M0 0 C337.92 0 675.84 0 1024 0 C1024 337.92 1024 675.84 1024 1024 C686.08 1024 348.16 1024 0 1024 C0 686.08 0 348.16 0 0 Z M66 58 C65.95907063 60.33297433 65.95758277 62.66705225 66 65 C63.36 65.33 60.72 65.66 58 66 C58 360.69 58 655.38 58 959 C60.64 959 63.28 959 66 959 C66 961.97 66 964.94 66 968 C66.76034169 967.99993224 67.52068337 967.99986448 68.30406572 967.99979467 C151.07248468 967.99263101 233.84090239 967.99288053 316.60931396 968.0319519 C318.46345328 968.032824 318.46345328 968.032824 320.35504996 968.03371371 C347.21778385 968.04639311 374.08051689 968.06040517 400.94324936 968.07579029 C414.11646298 968.08332689 427.28967676 968.09056896 440.46289062 968.09765625 C442.42924479 968.09872168 442.42924479 968.09872168 444.43532328 968.09980864 C486.93604149 968.12269879 529.43673426 968.12613516 571.93745725 968.11949802 C615.60743134 968.11278094 659.27735676 968.12566038 702.94731626 968.16324616 C709.11343438 968.16854405 715.27955266 968.17361759 721.44567108 968.17855453 C722.65926813 968.17953315 723.87286517 968.18051176 725.12323789 968.18152003 C744.66969927 968.19670455 764.21610283 968.19119176 783.76256336 968.17796514 C803.4067707 968.16511313 823.05087246 968.17400386 842.69506016 968.20516153 C854.37033319 968.22301694 866.04532981 968.22412854 877.72059582 968.20137666 C885.51834169 968.18782308 893.31586917 968.1959856 901.1135835 968.22182867 C905.55759989 968.2359346 910.00106798 968.24057664 914.44506553 968.21874608 C918.49171806 968.19905358 922.53734587 968.2071612 926.58392745 968.23702075 C928.03520912 968.24293346 929.48657602 968.23890505 930.93778744 968.22345027 C941.42415268 968.1196578 950.18042871 969.83754776 958.23144092 976.97947694 C962.45191948 981.35379195 964.89318821 986.3469398 967 992 C967.66 992 968.32 992 969 992 C969.3403125 991.21496094 969.680625 990.42992187 970.03125 989.62109375 C975.05320028 978.73574938 980.78827324 973.17844446 992 969 C992 968.34 992 967.68 992 967 C991.21496094 966.6596875 990.42992187 966.319375 989.62109375 965.96875 C978.73574938 960.94679972 973.17844446 955.21172676 969 944 C968.34 944 967.68 944 967 944 C967 653.93 967 363.86 967 65 C964.03 65 961.06 65 958 65 C958 62.36 958 59.72 958 57 C873.06892444 56.9828697 788.13784867 56.96696897 703.20677185 56.95765686 C701.32286471 56.95744977 701.32286471 56.95744977 699.40089884 56.95723851 C672.10948675 56.95424597 644.81807464 56.95147573 617.5266625 56.94893467 C604.81636151 56.94774995 592.10606052 56.94652421 579.39575953 56.94526756 C577.37816738 56.94506831 575.36057523 56.94487019 573.34298308 56.94467212 C542.26279409 56.94161095 511.18260549 56.9376999 480.10241699 56.93133545 C479.43380491 56.93119855 478.76519283 56.93106165 478.07631978 56.9309206 C467.29582696 56.92870814 456.51533416 56.92642457 445.73484135 56.92413156 C400.68057758 56.9145501 355.62631436 56.90814774 310.57204954 56.90608501 C304.31104814 56.90579683 298.05004674 56.9054712 291.78904533 56.90512276 C289.94056585 56.90502162 289.94056585 56.90502162 288.05474335 56.90491844 C268.17510745 56.90373427 248.29547378 56.89908962 228.4158388 56.89316797 C208.45596454 56.88729564 188.49609249 56.88502826 168.5362174 56.88649862 C156.66098384 56.88726229 144.78575835 56.88520409 132.91052624 56.87920246 C124.9935533 56.87547274 117.0765857 56.87532201 109.1596124 56.87816819 C104.63861334 56.87968847 100.11762965 56.87957063 95.59663219 56.87511682 C91.4931938 56.87110476 87.38978292 56.87159616 83.28634501 56.87586002 C81.80203722 56.87658108 80.31772749 56.87558391 78.8334222 56.87276476 C76.83472324 56.86920586 74.83601562 56.87229081 72.83731657 56.8758015 C71.72564266 56.87564552 70.61396875 56.87548954 69.46860776 56.87532884 C67.05589673 56.72058944 67.05589673 56.72058944 66 58 Z " fill="#000100" transform="translate(0,0)"/>
<path d="M0 0 C1.11167391 0.00015598 2.22334782 0.00031196 3.36870882 0.00047267 C4.64813083 -0.00177462 5.92755285 -0.00402192 7.24574524 -0.00633731 C8.68700274 -0.003771 10.12826009 -0.00111406 11.56951728 0.00162334 C13.09021936 0.0008846 14.61092129 -0.00029301 16.13162273 -0.00187316 C20.34925435 -0.00496296 24.56686214 -0.00174998 28.78449199 0.00240497 C33.35820635 0.0058216 37.93191814 0.00347175 42.50563296 0.00182748 C50.53445466 -0.00025243 58.56326896 0.001408 66.5920898 0.00546569 C78.53078983 0.01148271 90.46948516 0.01180317 102.40818643 0.0109237 C122.48768889 0.0096075 142.56718806 0.01295992 162.64668956 0.01894111 C182.53793906 0.02485108 202.4291872 0.02870563 222.32043758 0.02979392 C224.17318694 0.02989703 224.17318694 0.02989703 226.06336558 0.03000222 C232.33573664 0.03034054 238.6081077 0.03064193 244.88047876 0.0309291 C289.34802046 0.03303146 333.81556058 0.03977348 378.28310123 0.04923171 C389.06667056 0.05152333 399.85023989 0.05379867 410.63380923 0.05600661 C411.30258776 0.05614356 411.97136628 0.05628051 412.66041082 0.05642161 C443.73777514 0.06276318 474.81513963 0.06649047 505.89250443 0.06954141 C507.90953854 0.06973947 509.92657264 0.06993867 511.94360675 0.07013809 C525.31035646 0.07145785 538.67710617 0.07273239 552.04385589 0.07397695 C579.27529198 0.0765134 606.50672804 0.07933465 633.73816409 0.08232803 C634.99031743 0.08246532 636.24247077 0.08260261 637.53256816 0.08274406 C721.19884359 0.09195014 804.86511804 0.10779597 888.53139224 0.12467116 C888.53139224 2.76467116 888.53139224 5.40467116 888.53139224 8.12467116 C891.50139224 8.12467116 894.47139224 8.12467116 897.53139224 8.12467116 C897.53139224 298.19467116 897.53139224 588.26467116 897.53139224 887.12467116 C898.19139224 887.12467116 898.85139224 887.12467116 899.53139224 887.12467116 C900.04186099 888.30222976 900.04186099 888.30222976 900.56264224 889.50357741 C905.58459253 900.38892178 911.31966548 905.9462267 922.53139224 910.12467116 C922.53139224 910.78467116 922.53139224 911.44467116 922.53139224 912.12467116 C921.35383365 912.63513991 921.35383365 912.63513991 920.15248599 913.15592116 C909.26714163 918.17787145 903.70983671 923.9129444 899.53139224 935.12467116 C898.87139224 935.12467116 898.21139224 935.12467116 897.53139224 935.12467116 C897.02092349 933.94711257 897.02092349 933.94711257 896.50014224 932.74576491 C892.0516445 923.10340944 887.1298069 917.25208506 877.3578547 912.99623981 C871.62184158 911.22748141 865.66043054 911.57717587 859.71191039 911.61686248 C858.20404894 911.61219103 856.69619208 911.6057681 855.18834465 911.5977602 C851.04356742 911.58081838 846.89915354 911.58872227 842.75437264 911.60066719 C838.24582135 911.60925174 833.73733562 911.59463652 829.22879955 911.58295817 C821.32681377 911.56568744 813.424931 911.56323774 805.52293124 911.57047385 C793.77296574 911.58116662 782.0231019 911.56898721 770.27314765 911.55210213 C750.50802747 911.52434777 730.74293934 911.51517104 710.97780147 911.51655501 C691.40575288 911.51786486 671.83373583 911.51093427 652.26169505 911.49298019 C650.43680433 911.4913131 650.43680433 911.4913131 648.57504713 911.48961234 C642.39666821 911.48392532 636.21828944 911.47809089 630.03991071 911.47219971 C586.27006585 911.43072971 542.50022886 911.40776292 498.73036685 911.39566726 C456.20659473 911.38387363 413.68284007 911.36370524 371.15907779 911.3321907 C369.84848043 911.33122274 368.53788308 911.33025479 367.18757065 911.32925751 C354.02610198 911.31952776 340.86463344 911.30962766 327.70316499 911.29960275 C300.8913559 911.27918444 274.07954604 911.25990316 247.26773563 911.24130935 C246.03495196 911.24045302 244.8021683 911.23959669 243.53202755 911.23871441 C161.1984921 911.18165337 78.86494252 911.15109832 -3.46860776 911.12467116 C-3.46860776 908.15467116 -3.46860776 905.18467116 -3.46860776 902.12467116 C-6.10860776 902.12467116 -8.74860776 902.12467116 -11.46860776 902.12467116 C-11.46860776 607.43467116 -11.46860776 312.74467116 -11.46860776 9.12467116 C-8.82860776 8.79467116 -6.18860776 8.46467116 -3.46860776 8.12467116 C-3.48923276 6.99029616 -3.50985776 5.85592116 -3.53110776 4.68717116 C-3.45193514 0.17433178 -3.45193514 0.17433178 0 0 Z M-3.46860776 9.12467116 C-3.46860776 303.81467116 -3.46860776 598.50467116 -3.46860776 902.12467116 C290.56139224 902.12467116 584.59139224 902.12467116 887.53139224 902.12467116 C887.53139224 607.43467116 887.53139224 312.74467116 887.53139224 9.12467116 C593.50139224 9.12467116 299.47139224 9.12467116 -3.46860776 9.12467116 Z " fill="#37B939" transform="translate(69.46860775724053,56.875328835099936)"/>
<path d="M0 0 C2.64 0 5.28 0 8 0 C8.33 289.74 8.66 579.48 9 878 C9.66 878 10.32 878 11 878 C11.51046875 879.17755859 11.51046875 879.17755859 12.03125 880.37890625 C17.05320028 891.26425062 22.78827324 896.82155554 34 901 C34 901.66 34 902.32 34 903 C32.82244141 903.51046875 32.82244141 903.51046875 31.62109375 904.03125 C20.73574938 909.05320028 15.17844446 914.78827324 11 926 C10.34 926 9.68 926 9 926 C8.48953125 924.82244141 8.48953125 924.82244141 7.96875 923.62109375 C2.94679972 912.73574938 -2.78827324 907.17844446 -14 903 C-14 902.34 -14 901.68 -14 901 C-303.41 901 -592.82 901 -891 901 C-891 898.69 -891 896.38 -891 894 C-596.97 894 -302.94 894 0 894 C0 598.98 0 303.96 0 0 Z " fill="#44D34D" transform="translate(958,66)"/>
<path d="M0 0 C2.97 0 5.94 0 9 0 C9 2.64 9 5.28 9 8 C11.64 8 14.28 8 17 8 C17 10.31 17 12.62 17 15 C19.64 15 22.28 15 25 15 C25 17.97 25 20.94 25 24 C27.64 24 30.28 24 33 24 C33 26.31 33 28.62 33 31 C35.64 31 38.28 31 41 31 C41 33.64 41 36.28 41 39 C43.97 39 46.94 39 50 39 C50 41.97 50 44.94 50 48 C52.64 48 55.28 48 58 48 C58 50.64 58 53.28 58 56 C60.64 56 63.28 56 66 56 C66 58.64 66 61.28 66 64 C68.64 64 71.28 64 74 64 C74 66.64 74 69.28 74 72 C76.64 72 79.28 72 82 72 C82 74.64 82 77.28 82 80 C84.64 80 87.28 80 90 80 C90 82.64 90 85.28 90 88 C92.31 88 94.62 88 97 88 C97 90.97 97 93.94 97 97 C99.64 97 102.28 97 105 97 C105 99.64 105 102.28 105 105 C107.64 105 110.28 105 113 105 C113 107.64 113 110.28 113 113 C97.16 113 81.32 113 65 113 C65 118.28 65 123.56 65 129 C67.64 129 70.28 129 73 129 C73 131.64 73 134.28 73 137 C75.64 137 78.28 137 81 137 C81 142.61 81 148.22 81 154 C83.64 154 86.28 154 89 154 C89 156.64 89 159.28 89 162 C91.97 162 94.94 162 98 162 C98 167.28 98 172.56 98 178 C95.36 178 92.72 178 90 178 C90 180.64 90 183.28 90 186 C84.39 186 78.78 186 73 186 C73 183.36 73 180.72 73 178 C70.36 178 67.72 178 65 178 C65 172.72 65 167.44 65 162 C62.36 162 59.72 162 57 162 C57 156.39 57 150.78 57 145 C54.36 145 51.72 145 49 145 C49 142.36 49 139.72 49 137 C46.36 137 43.72 137 41 137 C41 134.36 41 131.72 41 129 C38.03 129 35.06 129 32 129 C32 131.64 32 134.28 32 137 C29.69 137 27.38 137 25 137 C25 139.97 25 142.94 25 146 C22.36 146 19.72 146 17 146 C17 148.64 17 151.28 17 154 C14.36 154 11.72 154 9 154 C9 156.64 9 159.28 9 162 C6.03 162 3.06 162 0 162 C0 108.54 0 55.08 0 0 Z " fill="#40CD38" transform="translate(230,436)"/>
<path d="M0 0 C2.64 0 5.28 0 8 0 C8 294.69 8 589.38 8 893 C5.36 893 2.72 893 0 893 C0 598.31 0 303.62 0 0 Z " fill="#48D93E" transform="translate(58,66)"/>
<path d="M0 0 C293.7 0 587.4 0 890 0 C883.08749819 6.91250181 878.12307613 7.3428491 868.62866476 7.39302543 C867.22277385 7.38532935 865.81688441 7.37735861 864.41099644 7.36914349 C862.90376434 7.37136346 861.39653371 7.37490035 859.88930741 7.37963298 C855.73698392 7.38884229 851.58488067 7.37931306 847.43257358 7.36679858 C842.91929518 7.35649917 838.40603921 7.36360776 833.8927564 7.36853105 C825.97933729 7.37475523 818.0659858 7.3698159 810.15257454 7.35761642 C798.38559629 7.33952654 786.61866077 7.3386076 774.85167115 7.34124239 C755.05865899 7.34518622 735.26567684 7.33515179 715.47267342 7.31719017 C695.87107253 7.29944778 676.26948415 7.28789409 656.66787529 7.28463173 C655.44975765 7.28442551 654.23164001 7.28421929 652.97660971 7.28400682 C646.79057295 7.28299184 640.60453618 7.28208769 634.4184994 7.2812262 C590.58652689 7.27492257 546.75457072 7.25470381 502.92260742 7.22631836 C460.33666949 7.19877163 417.75073979 7.17751757 375.16479492 7.16479492 C373.19626323 7.16420305 373.19626323 7.16420305 371.18796321 7.16359923 C358.00893205 7.15964372 344.82990086 7.15581627 331.65086963 7.15208265 C304.80292632 7.14447372 277.95498329 7.13600996 251.10704041 7.12702942 C249.87257667 7.12661755 248.63811294 7.12620568 247.36624121 7.12578133 C164.91082068 7.09817268 82.45540921 7.0506363 0 7 C0 4.69 0 2.38 0 0 Z " fill="#41ED46" transform="translate(67,960)"/>
<path d="M0 0 C18.81 0 37.62 0 57 0 C57 37.95 57 75.9 57 115 C53.7 115 50.4 115 47 115 C47 117.97 47 120.94 47 124 C44.36 124 41.72 124 39 124 C39 126.97 39 129.94 39 133 C23.49 133 7.98 133 -8 133 C-8 128.38 -8 123.76 -8 119 C4.54 119 17.08 119 30 119 C30 117.68 30 116.36 30 115 C32.64 115 35.28 115 38 115 C38 81.67 38 48.34 38 14 C25.46 14 12.92 14 0 14 C0 9.38 0 4.76 0 0 Z " fill="#42CD41" transform="translate(616,473)"/>
<path d="M0 0 C19.47 0 38.94 0 59 0 C59 4.29 59 8.58 59 13 C42.83 13 26.66 13 10 13 C10 16.3 10 19.6 10 23 C6.7 23 3.4 23 0 23 C0 26.63 0 30.26 0 34 C-1.98 34 -3.96 34 -6 34 C-6 44.56 -6 55.12 -6 66 C-4.02 66 -2.04 66 0 66 C0 68.31 0 70.62 0 73 C3.3 73 6.6 73 10 73 C10 76.3 10 79.6 10 83 C12.64 83 15.28 83 18 83 C18 84.65 18 86.3 18 88 C31.86 88 45.72 88 60 88 C60 92.29 60 96.58 60 101 C40.2 101 20.4 101 0 101 C0 97.7 0 94.4 0 91 C-1.98 91 -3.96 91 -6 91 C-6 88.36 -6 85.72 -6 83 C-9.3 83 -12.6 83 -16 83 C-16 80.03 -16 77.06 -16 74 C-18.64 74 -21.28 74 -24 74 C-24 58.49 -24 42.98 -24 27 C-21.36 27 -18.72 27 -16 27 C-16 24.36 -16 21.72 -16 19 C-13.36 19 -10.72 19 -8 19 C-8 16.69 -8 14.38 -8 12 C-5.36 12 -2.72 12 0 12 C0 8.04 0 4.08 0 0 Z " fill="#46D042" transform="translate(739,473)"/>
<path d="M0 0 C0.33 0 0.66 0 1 0 C1.33 99.33 1.66 198.66 2 301 C2.33 300.34 2.66 299.68 3 299 C3.66 299 4.32 299 5 299 C5.51046875 300.17755859 5.51046875 300.17755859 6.03125 301.37890625 C11.05320028 312.26425062 16.78827324 317.82155554 28 322 C28 322.66 28 323.32 28 324 C27.21496094 324.3403125 26.42992187 324.680625 25.62109375 325.03125 C14.73574938 330.05320028 9.17844446 335.78827324 5 347 C4.34 347 3.68 347 3 347 C2.48953125 345.82244141 2.48953125 345.82244141 1.96875 344.62109375 C-3.05320028 333.73574938 -8.78827324 328.17844446 -20 324 C-20 323.34 -20 322.68 -20 322 C-19.14535156 321.57847656 -18.29070313 321.15695312 -17.41015625 320.72265625 C-16.30542969 320.17480469 -15.20070313 319.62695312 -14.0625 319.0625 C-12.40927734 318.24458984 -12.40927734 318.24458984 -10.72265625 317.41015625 C-8.15205586 316.25295022 -8.15205586 316.25295022 -7 315 C-6.87867751 313.67075256 -6.82445227 312.33529012 -6.79802513 311.00077915 C-6.76912213 309.70664819 -6.76912213 309.70664819 -6.73963523 308.38637316 C-6.72358875 307.43190118 -6.70754226 306.47742919 -6.69100952 305.49403381 C-6.67076729 304.49473732 -6.65052506 303.49544083 -6.62966943 302.46586263 C-6.56422403 299.12193542 -6.50696612 295.77793119 -6.45068359 292.43383789 C-6.4193433 290.69431545 -6.4193433 290.69431545 -6.38736987 288.91965115 C-5.94268449 264.09469027 -5.83564614 239.27147784 -5.80076981 214.44308281 C-5.78978129 206.8391548 -5.76948898 199.23526653 -5.74765015 191.63136292 C-5.71755075 180.98544683 -5.68822802 170.33953011 -5.66210938 159.69360352 C-5.66047119 159.02698328 -5.65883301 158.36036305 -5.65714519 157.67354221 C-5.63053453 146.73428625 -5.61204121 135.79502703 -5.59551747 124.85575186 C-5.57812296 113.52115514 -5.54916082 102.18663463 -5.5106281 90.8520866 C-5.48959012 84.527521 -5.47410426 78.20304904 -5.47182083 71.87844658 C-5.46968541 65.97874563 -5.45393083 60.0792439 -5.42743111 54.17960358 C-5.42021057 52.01516631 -5.41815038 49.85070498 -5.42153358 47.68625832 C-5.42540228 44.74274302 -5.41106181 41.79987273 -5.39199829 38.85643005 C-5.39752799 37.99404785 -5.40305768 37.13166565 -5.40875494 36.24315065 C-5.34261879 30.36608563 -5.34261879 30.36608563 -3.51689851 28.41531712 C-3.016322 27.94826247 -2.51574549 27.48120782 -2 27 C-0.58062562 21.54348294 -0.66945539 15.7375599 -0.4375 10.125 C-0.39431641 9.15046875 -0.35113281 8.1759375 -0.30664062 7.171875 C-0.20117726 4.78137198 -0.09905825 2.39077556 0 0 Z " fill="#46D34E" transform="translate(964,645)"/>
<path d="M0 0 C0.33 0 0.66 0 1 0 C1.03426196 80.53146156 1.06606324 161.062924 1.08468628 241.59439087 C1.08496239 242.78534298 1.08523851 243.97629509 1.08552299 245.20333665 C1.09150811 271.08285359 1.09704858 296.96237061 1.10213066 322.84188773 C1.10462544 335.53228715 1.10721853 348.22268655 1.10986328 360.91308594 C1.1101248 362.1759665 1.11038632 363.43884705 1.11065576 364.73999672 C1.11918598 405.71004908 1.1342142 446.68009594 1.15259444 487.65014496 C1.17144055 529.73482122 1.18376645 571.81949444 1.18782998 613.90417485 C1.18840633 619.84159982 1.18905761 625.77902478 1.18975449 631.71644974 C1.18988933 632.88507705 1.19002418 634.05370436 1.19016311 635.25774462 C1.1925311 654.10693127 1.20181944 672.95610854 1.21366407 691.80529136 C1.22541109 710.73235312 1.22994287 729.65940554 1.22700275 748.58647083 C1.22547588 759.84606992 1.22958781 771.1056349 1.24159509 782.36522786 C1.24905807 789.87311106 1.24935345 797.38097176 1.24366363 804.88885647 C1.24062494 809.17539702 1.2408512 813.46187279 1.24976636 817.74840657 C1.2577998 821.64028616 1.25679851 825.5320498 1.24827995 829.4239274 C1.24683974 830.83051983 1.24882466 832.23712053 1.25447049 833.64370237 C1.26160634 835.54026866 1.25540864 837.43687152 1.24839699 839.33343828 C1.24870895 840.38755534 1.24902092 841.44167239 1.24934233 842.52773239 C1 845 1 845 -1 847 C-2.36169776 831.87028877 -2.14222984 816.69428718 -2.12846755 801.51905809 C-2.12591269 797.47146001 -2.12919795 793.42386574 -2.13171089 789.37626821 C-2.13531095 782.29340108 -2.13522017 775.21054158 -2.13266373 768.1276741 C-2.12887218 757.59395858 -2.1308198 747.06024947 -2.13387203 736.52653399 C-2.13913283 717.70498261 -2.1386831 698.88343463 -2.13579312 680.06188293 C-2.13327477 663.57868791 -2.13262215 647.09549414 -2.13381577 630.61229897 C-2.13389215 629.51771882 -2.13396854 628.42313868 -2.13404724 627.29538944 C-2.1343586 622.85160769 -2.134677 618.40782594 -2.135007 613.96404419 C-2.13806551 572.28038853 -2.13529404 530.59673503 -2.1299101 488.9130797 C-2.12517089 451.94034299 -2.12558388 414.96760973 -2.13037109 377.99487305 C-2.13573693 336.41476095 -2.13784227 294.83465076 -2.13475883 253.25453836 C-2.13443814 248.81309243 -2.1341253 244.3716465 -2.13381577 239.93020058 C-2.13373669 238.83668291 -2.13365761 237.74316524 -2.13357614 236.61651067 C-2.13244265 220.16336343 -2.13376161 203.71021758 -2.13629532 187.25707054 C-2.13916665 168.51855317 -2.13841449 149.78003971 -2.13301457 131.04152282 C-2.1300979 120.57752487 -2.12985786 110.11353543 -2.13366075 99.64953771 C-2.13592829 92.63042384 -2.13446297 85.61131668 -2.13015598 78.59220379 C-2.12781183 74.61219072 -2.12688924 70.63219434 -2.13056196 66.65218189 C-2.14451371 50.2563195 -1.99387143 33.87528289 -1.55456352 17.48471546 C-1.52542861 16.32710893 -1.52542861 16.32710893 -1.49570511 15.14611641 C-1.43982085 12.97976839 -1.37717018 10.81373692 -1.31194198 8.64765245 C-1.27609249 7.40977537 -1.24024299 6.17189829 -1.20330714 4.89650979 C-1 2 -1 2 0 0 Z " fill="#59E153" transform="translate(64,73)"/>
<path d="M0 0 C1.65 0 3.3 0 5 0 C4.51261358 0.3269765 4.02522717 0.653953 3.52307147 0.99083787 C1.16657501 4.09941389 1.59352386 7.39921774 1.63085651 11.14659405 C1.62739498 11.99086568 1.62393345 12.8351373 1.62036702 13.70499292 C1.61237044 16.55909313 1.62593106 19.41269459 1.63923645 22.26676941 C1.6379293 24.32351037 1.63530454 26.38025085 1.63146895 28.43698865 C1.62473433 34.10825776 1.63679748 39.77935815 1.65180314 45.45060575 C1.66471646 51.55899463 1.66037738 57.66737341 1.65809631 63.77577209 C1.65652059 74.36546087 1.66585662 84.95508874 1.68280983 95.54475975 C1.70054868 106.65359954 1.71210519 117.76241728 1.71536827 128.87127113 C1.71557449 129.56146561 1.71578071 130.25166009 1.71599318 130.96276955 C1.71700815 134.46778502 1.71791231 137.97280051 1.7187738 141.47781602 C1.72507842 166.31685005 1.7452999 191.15585526 1.77368164 215.99487305 C1.80122578 240.12866055 1.8224811 264.26244017 1.83520508 288.39624023 C1.83559966 289.1398855 1.83599424 289.88353077 1.83640077 290.64971074 C1.84035626 298.11756498 1.84418371 305.58541929 1.84791735 313.05327364 C1.8555264 328.26674279 1.86399016 343.48021142 1.87297058 358.69367981 C1.87338245 359.39320142 1.87379432 360.09272304 1.87421867 360.81344228 C1.90183005 407.54230709 1.94942905 454.27115498 2 501 C2.33 499.35 2.66 497.7 3 496 C3.99 495.67 4.98 495.34 6 495 C6.495 416.295 6.495 416.295 7 336 C7.33 336 7.66 336 8 336 C8 516.51 8 697.02 8 883 C7.67 883 7.34 883 7 883 C6.67 789.61 6.34 696.22 6 600 C5.34 602.31 4.68 604.62 4 607 C3.34 607.66 2.68 608.32 2 609 C1.79400027 612.05791893 1.71495514 615.02634541 1.7215271 618.08609009 C1.7157347 619.03926664 1.7099423 619.99244319 1.70397437 620.97450387 C1.68688503 624.18827712 1.68409021 627.40190755 1.68115234 630.61572266 C1.67186033 632.91155859 1.66169276 635.20739113 1.65071106 637.5032196 C1.62331507 643.75289463 1.6082333 650.002547 1.59528303 656.25226641 C1.57969435 662.77728417 1.55289065 669.30225537 1.5272522 675.82723999 C1.48571924 686.7845525 1.4511464 697.74186688 1.421875 708.69921875 C1.39170278 719.98667222 1.35735864 731.27410024 1.31738281 742.56152344 C1.31369049 743.60469022 1.31369049 743.60469022 1.30992357 744.66893108 C1.29754923 748.15767866 1.28509265 751.64642594 1.27259517 755.13517308 C1.16897861 784.09007907 1.07993923 813.04501934 1 842 C0.67 842 0.34 842 0 842 C0 564.14 0 286.28 0 0 Z " fill="#48DB4D" transform="translate(958,66)"/>
<path d="M0 0 C36.96 0 73.92 0 112 0 C112 3.63 112 7.26 112 11 C75.04 11 38.08 11 0 11 C0 7.37 0 3.74 0 0 Z " fill="#46D44B" transform="translate(405,570)"/>
<path d="M0 0 C1.65 0 3.3 0 5 0 C4.26922555 0.56453859 4.26922555 0.56453859 3.52368797 1.140482 C1.40611583 3.72477983 1.62346623 5.4330085 1.62099248 8.75228804 C1.60872954 10.56635641 1.60872954 10.56635641 1.59621885 12.41707262 C1.60229654 13.76875543 1.60864676 15.12043703 1.61523914 16.47211742 C1.61131463 17.90647205 1.60607494 19.34082358 1.59963337 20.7751691 C1.58566637 24.74377616 1.59052453 28.71217736 1.59826221 32.68079337 C1.60338387 36.98799438 1.59118791 41.29515067 1.58113068 45.60233814 C1.56589589 53.16010226 1.5618482 60.7178092 1.56500816 68.27558708 C1.56965684 79.51380799 1.55720717 90.75196381 1.54117843 101.99017191 C1.51470689 120.89230366 1.50221464 139.79442075 1.49761391 158.69656944 C1.49301139 177.41950122 1.48224194 196.1424126 1.46318626 214.86533546 C1.46200614 216.02827419 1.46082601 217.19121292 1.45961012 218.38939222 C1.45358493 224.29506312 1.44744908 230.2007339 1.44127061 236.10640464 C1.39767646 277.9661947 1.3679848 319.82598429 1.34643555 361.68579102 C1.32546543 402.35897555 1.29821886 443.03214794 1.26245117 483.70532227 C1.26135169 484.9584406 1.26025222 486.21155893 1.25911942 487.50265054 C1.24807135 500.08666432 1.23689542 512.67067799 1.2256258 525.25469157 C1.20266998 550.89113266 1.1805677 576.52757445 1.15898132 602.16401672 C1.1579877 603.34281006 1.15699409 604.5216034 1.15597036 605.73611774 C1.08968501 684.49073522 1.04329817 763.24536695 1 842 C0.67 842 0.34 842 0 842 C0 564.14 0 286.28 0 0 Z " fill="#4BE25F" transform="translate(958,66)"/>
<path d="M0 0 C0.66 0 1.32 0 2 0 C2.51046875 1.17755859 2.51046875 1.17755859 3.03125 2.37890625 C8.05320028 13.26425062 13.78827324 18.82155554 25 23 C25 23.66 25 24.32 25 25 C24.21496094 25.3403125 23.42992187 25.680625 22.62109375 26.03125 C11.73574938 31.05320028 6.17844446 36.78827324 2 48 C1.34 48 0.68 48 0 48 C-0.3403125 47.21496094 -0.680625 46.42992187 -1.03125 45.62109375 C-6.05320028 34.73574938 -11.78827324 29.17844446 -23 25 C-23 24.34 -23 23.68 -23 23 C-22.21496094 22.6596875 -21.42992187 22.319375 -20.62109375 21.96875 C-9.73574938 16.94679972 -4.17844446 11.21172676 0 0 Z " fill="#7D7E7D" transform="translate(967,944)"/>
<path d="M0 0 C10.56 0 21.12 0 32 0 C31.67 0.99 31.34 1.98 31 3 C28.69 3 26.38 3 24 3 C24 3.66 24 4.32 24 5 C18.72 5 13.44 5 8 5 C7.67 5.66 7.34 6.32 7 7 C6.67 6.67 6.34 6.34 6 6 C5.67 6.66 5.34 7.32 5 8 C5.60585938 7.9278125 6.21171875 7.855625 6.8359375 7.78125 C12.91834595 7.1075063 18.88302138 6.88286637 25 7 C24.67 7.99 24.34 8.98 24 10 C14.595 10.495 14.595 10.495 5 11 C11.31730701 11.701923 16.76529746 12.09896353 23 12 C23 12.33 23 12.66 23 13 C20.36 13 17.72 13 15 13 C15.33 13.99 15.66 14.98 16 16 C15.01 16.33 14.02 16.66 13 17 C13 16.34 13 15.68 13 15 C9.87525373 16.63473516 9.87525373 16.63473516 9.3125 19.125 C9.209375 19.74375 9.10625 20.3625 9 21 C11.64 21 14.28 21 17 21 C17.495 28.92 17.495 28.92 18 37 C20.64 36.67 23.28 36.34 26 36 C25.67 39.63 25.34 43.26 25 47 C24.67 47 24.34 47 24 47 C24 44.36 24 41.72 24 39 C21.36 39 18.72 39 16 39 C16 33.39 16 27.78 16 22 C13.36 22 10.72 22 8 22 C8 19.36 8 16.72 8 14 C5.36 14 2.72 14 0 14 C0 9.38 0 4.76 0 0 Z " fill="#021600" transform="translate(295,551)"/>
<path d="M0 0 C5.61 0 11.22 0 17 0 C17 6.27 17 12.54 17 19 C11.39 19 5.78 19 0 19 C0 12.73 0 6.46 0 0 Z " fill="#45D93F" transform="translate(655,435)"/>
<path d="M0 0 C36.96 0 73.92 0 112 0 C112 0.33 112 0.66 112 1 C108.37 1.33 104.74 1.66 101 2 C101 2.33 101 2.66 101 3 C89.22160538 3.76166023 77.51246931 4.14025027 65.7109375 4.09765625 C64.14482672 4.09578323 62.57871534 4.09436353 61.01260376 4.09336853 C56.95876346 4.08961273 52.90496097 4.07984488 48.85113525 4.06866455 C44.68722037 4.05829813 40.52329917 4.05383884 36.359375 4.04882812 C28.23956629 4.03821377 20.11978789 4.02122474 12 4 C15 2 15 2 30 2 C15.15 1.505 15.15 1.505 0 1 C0 0.67 0 0.34 0 0 Z " fill="#071D08" transform="translate(405,581)"/>
<path d="M0 0 C19.8 0 39.6 0 60 0 C60 0.33 60 0.66 60 1 C55.59869008 1.85879218 51.47473042 2 47 2 C46.67 2.33 46.34 2.66 46 3 C56.23 3.33 66.46 3.66 77 4 C77 4.33 77 4.66 77 5 C40.04 5 3.08 5 -35 5 C-35 4.67 -35 4.34 -35 4 C-7.775 3.505 -7.775 3.505 20 3 C12.42464804 2.14288829 12.42464804 2.14288829 4.9375 1.9375 C3.52791016 1.95103516 3.52791016 1.95103516 2.08984375 1.96484375 C1.40019531 1.97644531 0.71054687 1.98804688 0 2 C0 1.34 0 0.68 0 0 Z " fill="#051A07" transform="translate(440,565)"/>
<path d="M0 0 C2.97 0 5.94 0 9 0 C9 2.64 9 5.28 9 8 C11.64 8 14.28 8 17 8 C16.34 8.66 15.68 9.32 15 10 C15.33 10.99 15.66 11.98 16 13 C15.67 13.99 15.34 14.98 15 16 C11.9375 17.1875 11.9375 17.1875 9 18 C8.67 16.68 8.34 15.36 8 14 C6.06215735 14.14120714 4.12473045 14.28812873 2.1875 14.4375 C1.10855469 14.51871094 0.02960938 14.59992187 -1.08203125 14.68359375 C-4.05989905 14.90212461 -4.05989905 14.90212461 -7 16 C-7 13.36 -7 10.72 -7 8 C-4.69 8 -2.38 8 0 8 C0 5.36 0 2.72 0 0 Z " fill="#061D05" transform="translate(262,565)"/>
<path d="M0 0 C3.9564967 0.01041346 7.91300025 0.01483535 11.86950684 0.01983643 C19.56874367 0.03041376 27.2679476 0.04737466 34.96716309 0.06866455 C34.63716309 1.05866455 34.30716309 2.04866455 33.96716309 3.06866455 C23.10128132 3.09183745 12.23540543 3.10960491 1.36950397 3.12047672 C-3.67599549 3.1256947 -8.72147804 3.13277271 -13.76696777 3.144104 C-18.63636758 3.15497136 -23.50575113 3.16094957 -28.37516212 3.16354179 C-30.23268706 3.16538909 -32.0902111 3.16899637 -33.94772911 3.17439461 C-36.54992978 3.18165607 -39.15206329 3.18265333 -41.75427246 3.18218994 C-42.52175812 3.18578522 -43.28924377 3.18938049 -44.07998657 3.19308472 C-47.8578937 3.18580767 -51.36018594 2.98174645 -55.03283691 2.06866455 C-55.03283691 1.73866455 -55.03283691 1.40866455 -55.03283691 1.06866455 C-36.68734582 -0.04451445 -18.36977816 -0.05363368 0 0 Z " fill="#011500" transform="translate(472.0328369140625,583.9313354492188)"/>
<path d="M0 0 C16.17 0 32.34 0 49 0 C49 0.33 49 0.66 49 1 C33.655 1.495 33.655 1.495 18 2 C19.65 2.66 21.3 3.32 23 4 C22.67 4.66 22.34 5.32 22 6 C14.74 6 7.48 6 0 6 C0 4.02 0 2.04 0 0 Z " fill="#0D3C0C" transform="translate(749,486)"/>
<path d="M0 0 C0.66 0 1.32 0 2 0 C2 24.75 2 49.5 2 75 C1.34 74.67 0.68 74.34 0 74 C0.00523682 73.17314697 0.01047363 72.34629395 0.01586914 71.49438477 C0.03745962 67.5170907 0.05237035 63.53983814 0.0625 59.5625 C0.06444366 58.8316922 0.06638733 58.1008844 0.06838989 57.34793091 C0.09204341 44.47463394 -0.20622955 31.628074 -0.73217773 18.76586914 C-0.97126297 12.36864832 -1.0866027 6.3183935 0 0 Z " fill="#3DCE46" transform="translate(963,275)"/>
<path d="M0 0 C9.9 0.33 19.8 0.66 30 1 C30 1.33 30 1.66 30 2 C29.26394531 2.13277344 28.52789063 2.26554688 27.76953125 2.40234375 C26.79371094 2.57894531 25.81789063 2.75554688 24.8125 2.9375 C23.36810547 3.19853516 23.36810547 3.19853516 21.89453125 3.46484375 C19.2575366 3.95238527 16.62833101 4.4680222 14 5 C13.2575 5.144375 12.515 5.28875 11.75 5.4375 C11.1725 5.623125 10.595 5.80875 10 6 C9.67 6.66 9.34 7.32 9 8 C11.97 8 14.94 8 18 8 C18.33 8.99 18.66 9.98 19 11 C15.37 11 11.74 11 8 11 C8 9.35 8 7.7 8 6 C5.36 6 2.72 6 0 6 C0 4.02 0 2.04 0 0 Z " fill="#031202" transform="translate(749,550)"/>
<path d="M0 0 C0.83595703 0.00451172 1.67191406 0.00902344 2.53320312 0.01367188 C4.58466649 0.02539452 6.63609273 0.04332797 8.6875 0.0625 C8.6875 0.3925 8.6875 0.7225 8.6875 1.0625 C6.0475 1.0625 3.4075 1.0625 0.6875 1.0625 C1.0175 2.0525 1.3475 3.0425 1.6875 4.0625 C0.6975 4.3925 -0.2925 4.7225 -1.3125 5.0625 C-1.3125 4.4025 -1.3125 3.7425 -1.3125 3.0625 C-4.43724627 4.69723516 -4.43724627 4.69723516 -5 7.1875 C-5.1546875 8.115625 -5.1546875 8.115625 -5.3125 9.0625 C-2.6725 9.0625 -0.0325 9.0625 2.6875 9.0625 C3.1825 16.9825 3.1825 16.9825 3.6875 25.0625 C7.6475 24.5675 7.6475 24.5675 11.6875 24.0625 C11.3575 27.6925 11.0275 31.3225 10.6875 35.0625 C10.3575 35.0625 10.0275 35.0625 9.6875 35.0625 C9.6875 32.4225 9.6875 29.7825 9.6875 27.0625 C7.0475 27.0625 4.4075 27.0625 1.6875 27.0625 C1.6875 21.4525 1.6875 15.8425 1.6875 10.0625 C-0.9525 10.0625 -3.5925 10.0625 -6.3125 10.0625 C-6.3125 7.4225 -6.3125 4.7825 -6.3125 2.0625 C-8.9525 2.0625 -11.5925 2.0625 -14.3125 2.0625 C-14.3125 1.7325 -14.3125 1.4025 -14.3125 1.0625 C-9.54157044 -0.17152862 -4.88780554 -0.05015112 0 0 Z " fill="#061B03" transform="translate(309.3125,562.9375)"/>
<path d="M0 0 C2.64 0 5.28 0 8 0 C8 0.66 8 1.32 8 2 C9.65 2 11.3 2 13 2 C12.67 3.65 12.34 5.3 12 7 C11.195625 7.12375 10.39125 7.2475 9.5625 7.375 C8.2940625 7.684375 8.2940625 7.684375 7 8 C6.67 8.66 6.34 9.32 6 10 C4.67532254 10.6837045 3.34136367 11.34964186 2 12 C1.34 12.66 0.68 13.32 0 14 C0 9.38 0 4.76 0 0 Z " fill="#021401" transform="translate(733,520)"/>
<path d="M0 0 C0 1.32 0 2.64 0 4 C-9.24 4 -18.48 4 -28 4 C-28 3.67 -28 3.34 -28 3 C-24.535 2.505 -24.535 2.505 -21 2 C-21.33 1.01 -21.66 0.02 -22 -1 C-15.03425291 -3.08305834 -6.65166268 -2.95629452 0 0 Z " fill="#021904" transform="translate(646,588)"/>
<path d="M0 0 C0.33 0 0.66 0 1 0 C1 6.27 1 12.54 1 19 C6.61 19 12.22 19 18 19 C18 12.73 18 6.46 18 0 C18.33 0 18.66 0 19 0 C19.06058594 1.13179688 19.12117187 2.26359375 19.18359375 3.4296875 C19.26799917 4.91147145 19.35264717 6.3932416 19.4375 7.875 C19.47681641 8.62136719 19.51613281 9.36773437 19.55664062 10.13671875 C19.71573624 14.19986864 19.71573624 14.19986864 21 18 C21 20 21 22 21 24 C15.72 24 10.44 24 5 24 C5 23.67 5 23.34 5 23 C11.435 22.505 11.435 22.505 18 22 C12.06 21.67 6.12 21.34 0 21 C0 14.07 0 7.14 0 0 Z " fill="#144414" transform="translate(654,435)"/>
<path d="M0 0 C-0.33 0.66 -0.66 1.32 -1 2 C-6.07761627 2.97897486 -11.2207811 3.30226806 -16.375 3.625 C-17.45974609 3.70234375 -17.45974609 3.70234375 -18.56640625 3.78125 C-20.37539456 3.89664513 -22.18793049 3.95353668 -24 4 C-24.33 3.67 -24.66 3.34 -25 3 C-27.18292774 2.76518307 -29.37203174 2.58636677 -31.5625 2.4375 C-33.35880859 2.31181641 -33.35880859 2.31181641 -35.19140625 2.18359375 C-36.11824219 2.12300781 -37.04507813 2.06242187 -38 2 C-37.67 1.34 -37.34 0.68 -37 0 C-24.55107033 -0.96676276 -12.45256109 -0.89735751 0 0 Z " fill="#021603" transform="translate(663,467)"/>
<path d="M0 0 C0.98291016 0.00966797 1.96582031 0.01933594 2.97851562 0.02929688 C4.00267578 0.05443359 5.02683594 0.07957031 6.08203125 0.10546875 C7.11779297 0.11900391 8.15355469 0.13253906 9.22070312 0.14648438 C11.77916824 0.18185486 14.33658905 0.23121331 16.89453125 0.29296875 C17.22453125 0.95296875 17.55453125 1.61296875 17.89453125 2.29296875 C9.20774024 3.01258457 0.61153299 3.43665559 -8.10546875 3.29296875 C-5.60795648 0.15933179 -3.93251113 -0.06819383 0 0 Z " fill="#021C03" transform="translate(655.10546875,455.70703125)"/>
<path d="M0 0 C0.66 0 1.32 0 2 0 C2.02696009 2.7708983 2.04681952 5.5415345 2.0625 8.3125 C2.07087891 9.09818359 2.07925781 9.88386719 2.08789062 10.69335938 C2.09111328 11.45068359 2.09433594 12.20800781 2.09765625 12.98828125 C2.10289307 13.68477783 2.10812988 14.38127441 2.11352539 15.09887695 C2 17 2 17 1 20 C1.66 20 2.32 20 3 20 C2.01 22.475 2.01 22.475 1 25 C3.31 25 5.62 25 8 25 C7.67 25.99 7.34 26.98 7 28 C4.69 28 2.38 28 0 28 C0 18.76 0 9.52 0 0 Z " fill="#040C02" transform="translate(673,475)"/>
<path d="M0 0 C0.33 0 0.66 0 1 0 C1 2.64 1 5.28 1 8 C-3.62 8 -8.24 8 -13 8 C-10.77547067 5.77547067 -8.76350755 4.7996763 -5.9375 3.4375 C-2.74843719 2.04103788 -2.74843719 2.04103788 0 0 Z " fill="#99E39B" transform="translate(957,960)"/>
<path d="M0 0 C2.60444348 -0.05394705 5.20776998 -0.09364469 7.8125 -0.125 C8.55048828 -0.14175781 9.28847656 -0.15851563 10.04882812 -0.17578125 C13.91246426 -0.21074628 15.70903668 -0.19397555 19 2 C17.02039491 3.97960509 13.32253166 3.229944 10.625 3.25 C9.93921875 3.270625 9.2534375 3.29125 8.546875 3.3125 C3.45917285 3.35209301 3.45917285 3.35209301 1.0234375 1.484375 C0.68570313 0.99453125 0.34796875 0.5046875 0 0 Z " fill="#001901" transform="translate(643,461)"/>
<path d="M0 0 C2.64 0 5.28 0 8 0 C7.01 1.485 7.01 1.485 6 3 C8.31 3.33 10.62 3.66 13 4 C13 4.33 13 4.66 13 5 C7.39 5 1.78 5 -4 5 C-4 4.01 -4 3.02 -4 2 C-2.68 2 -1.36 2 0 2 C0 1.34 0 0.68 0 0 Z " fill="#031403" transform="translate(781,556)"/>
<path d="M0 0 C0.33 0 0.66 0 1 0 C1 3.63 1 7.26 1 11 C-1.64 11 -4.28 11 -7 11 C-5.85845641 9.16399255 -4.71165684 7.33125195 -3.5625 5.5 C-2.92441406 4.4790625 -2.28632812 3.458125 -1.62890625 2.40625 C-0.82259766 1.21515625 -0.82259766 1.21515625 0 0 Z " fill="#9AD99C" transform="translate(966,948)"/>
<path d="M0 0 C0.33 0 0.66 0 1 0 C1.33 4.62 1.66 9.24 2 14 C4.64 13.67 7.28 13.34 10 13 C9.67 16.63 9.34 20.26 9 24 C8.67 24 8.34 24 8 24 C8 21.36 8 18.72 8 16 C5.36 16 2.72 16 0 16 C0 10.72 0 5.44 0 0 Z " fill="#0A1F0D" transform="translate(311,574)"/>
<path d="M0 0 C1.32 0.33 2.64 0.66 4 1 C3.34 2.32 2.68 3.64 2 5 C3.32 5.33 4.64 5.66 6 6 C5.8125 8.375 5.8125 8.375 5 11 C3.35 11.66 1.7 12.32 0 13 C0 8.71 0 4.42 0 0 Z " fill="#041301" transform="translate(673,514)"/>
<path d="M0 0 C0.33 0 0.66 0 1 0 C1.28574131 4.03847724 1.45905738 7.97109643 1 12 C-1.5 14.375 -1.5 14.375 -4 16 C-4.41809201 19.16848027 -4.41809201 19.16848027 -4 22 C-4.66 22 -5.32 22 -6 22 C-6 18.37 -6 14.74 -6 11 C-4.02 11 -2.04 11 0 11 C0 7.37 0 3.74 0 0 Z " fill="#0A2909" transform="translate(739,496)"/>
<path d="M0 0 C6.20970773 -0.33266291 10.28264895 0.54970669 16 3 C15.67 3.66 15.34 4.32 15 5 C11.28400809 5.20086443 10.22791555 5.1519437 7 3 C4.67612053 2.60612212 2.34206251 2.26513915 0 2 C0 1.34 0 0.68 0 0 Z " fill="#021100" transform="translate(756,487)"/>
<path d="M0 0 C1.98 0 3.96 0 6 0 C6 1.65 6 3.3 6 5 C3.36 5 0.72 5 -2 5 C-1.34 3.35 -0.68 1.7 0 0 Z " fill="#041106" transform="translate(717,495)"/>
<path d="M0 0 C0 2.97 0 5.94 0 9 C-0.66 8.01 -1.32 7.02 -2 6 C-2.66 6.99 -3.32 7.98 -4 9 C-4.1875 5.625 -4.1875 5.625 -4 2 C-1 0 -1 0 0 0 Z " fill="#4DDB4A" transform="translate(66,69)"/>
<path d="M0 0 C3.3 0 6.6 0 10 0 C10 0.99 10 1.98 10 3 C8.5199159 2.88637738 7.04089926 2.75877092 5.5625 2.625 C4.73878906 2.55539062 3.91507813 2.48578125 3.06640625 2.4140625 C2.38449219 2.27742187 1.70257812 2.14078125 1 2 C0.67 1.34 0.34 0.68 0 0 Z " fill="#011201" transform="translate(644,565)"/>
<path d="M0 0 C0.33 1.32 0.66 2.64 1 4 C2.65 4 4.3 4 6 4 C4.8125 5.5 4.8125 5.5 3 7 C0.3125 7.1875 0.3125 7.1875 -2 7 C-1.34 4.69 -0.68 2.38 0 0 Z " fill="#031103" transform="translate(286,594)"/>
<path d="M0 0 C1.65 0 3.3 0 5 0 C5.33 1.32 5.66 2.64 6 4 C4.02 4 2.04 4 0 4 C0 2.68 0 1.36 0 0 Z " fill="#040D03" transform="translate(733,535)"/>
<path d="M0 0 C3.96 0 7.92 0 12 0 C12 0.33 12 0.66 12 1 C7.545 1.495 7.545 1.495 3 2 C2.34 3.65 1.68 5.3 1 7 C0.67 7 0.34 7 0 7 C0 4.69 0 2.38 0 0 Z " fill="#48F140" transform="translate(67,960)"/>
<path d="M0 0 C2.64 0 5.28 0 8 0 C6 2 6 2 3.4375 2.5 C2.633125 2.665 1.82875 2.83 1 3 C0.67 3.66 0.34 4.32 0 5 C0 3.35 0 1.7 0 0 Z " fill="#42D539" transform="translate(58,66)"/>
<path d="M0 0 C2.31 0 4.62 0 7 0 C7 0.66 7 1.32 7 2 C5.35 2 3.7 2 2 2 C2 2.66 2 3.32 2 4 C1.34 4 0.68 4 0 4 C0 2.68 0 1.36 0 0 Z " fill="#040E04" transform="translate(655,597)"/>
<path d="M0 0 C2.64 0 5.28 0 8 0 C7.67 0.99 7.34 1.98 7 3 C5.02 3 3.04 3 1 3 C0.67 2.01 0.34 1.02 0 0 Z " fill="#0B310C" transform="translate(279,581)"/>
<path d="M0 0 C2.64 0 5.28 0 8 0 C6.68 1.32 5.36 2.64 4 4 C2.68 2.68 1.36 1.36 0 0 Z " fill="#4BE34F" transform="translate(949,960)"/>
</svg>
